<svg width="669" height="288" viewBox="0 0 669 288" fill="none" xmlns="http://www.w3.org/2000/svg">
<line x1="2.50194" y1="0.00210077" x2="0.24986" y2="268" stroke="black" stroke-width="0.5"/>
<line x1="662" y1="268.25" x2="0.000121323" y2="268.248" stroke="black" stroke-width="0.5"/>
<g opacity="0.2" filter="url(#filter0_d)">
<path d="M16 243.995L35.5 212.5L56 182.995L75.5 155.5L85.423 142.673C92.2907 133.795 101.839 127.369 112.649 124.35C115.876 123.449 119.181 122.861 122.52 122.594L128.494 122.116C137.657 121.383 146.846 123.168 155.068 127.279C159.334 129.413 163.277 132.14 166.777 135.381L168.031 136.543C172.65 140.82 176.596 145.771 179.734 151.229L186.5 162.995L193.5 172.5C199.702 179.352 207.746 184.273 216.67 186.676L217.205 186.82C224.954 188.906 233.092 189.097 240.931 187.376L241.654 187.218C246.855 186.076 251.855 184.158 256.485 181.527L261.577 178.633C268.065 174.947 273.404 169.534 277 162.995L283.5 155.495C289.106 147.251 296.355 140.253 304.792 134.941L305.5 134.495L311.834 133.088C319.425 131.401 327.351 132.107 334.523 135.11L336.685 136.015C342.108 138.285 346.739 142.104 350 146.995L355 159.995L361.129 179.103C362.695 183.986 365.182 188.524 368.456 192.472L376 201.569C378.851 205.006 383.084 206.995 387.549 206.995C391.667 206.995 395.605 205.302 398.438 202.313L403 197.5L418.5 176.495L426.5 163.995L427.858 161.732C431.455 155.737 438.802 153.039 445.458 155.178C447.125 155.714 448.701 156.556 450.068 157.65C454.824 161.454 461.459 161.856 466.639 158.651L468.5 157.5L479.5 146.5L492.5 133.995L502.901 125C508.281 120.347 514.194 116.348 520.516 113.087L526.5 110L532.393 107.527C538.685 104.887 545.565 103.964 552.33 104.855C558.037 105.606 563.504 107.626 568.328 110.767L573.083 113.863C579.312 117.92 584.782 123.039 589.242 128.986L603.5 148L621.5 179.5L639 209.5L657.5 241.5C658.33 242.164 657.861 243.502 656.798 243.502L16 243.995Z" fill="black"/>
</g>
<path d="M16.4996 243.5C16.4996 243.5 14.5842 242.211 58.4996 179C72.8837 158.296 82.233 146.426 88.8663 138.919C99.0492 127.395 114.719 122 130.098 122V122C150.131 122 168.626 132.744 178.549 150.148L185.081 161.604C191.473 172.814 201.823 181.334 214.032 185.511V185.511C226.195 189.672 239.548 189.254 251.403 184.282V184.282C259.663 180.819 266.899 175.298 272.423 168.247L287.5 149V149C298.293 135.209 317.312 127.566 333.477 134.3C340.25 137.121 346.23 140.856 349 146C351.757 151.12 355.008 161.043 358.17 171.727C364.715 193.845 385.337 218.805 400 201V201C407.357 192.066 418.713 175.308 426.867 162.12C431.738 154.242 443.052 152.024 450.095 158.04V158.04C455.664 162.796 463.97 162.407 469.07 157.151L492.5 133L506.108 122.113C510.358 118.713 514.942 115.754 519.79 113.28L528.114 109.033C533.955 106.054 540.418 104.5 546.975 104.5V104.5C556.683 104.5 566.084 107.904 573.542 114.119L579.173 118.812C581.72 120.934 584.092 123.258 586.265 125.76L590.47 130.602C596.475 137.518 601.794 145.001 606.351 152.946L658 243" stroke="black"/>
<path d="M16.224 2.92H23.56V3.732H20.368V13H19.416V3.732H16.224V2.92ZM26.1127 13.196C25.646 13.1867 25.2074 13.1027 24.7967 12.944C24.3954 12.7853 24.0407 12.5473 23.7327 12.23C23.434 11.9127 23.196 11.516 23.0187 11.04C22.8414 10.564 22.7527 10.0087 22.7527 9.374C22.7527 8.842 22.8227 8.34733 22.9627 7.89C23.1027 7.42333 23.3127 7.01733 23.5927 6.672C23.8727 6.32667 24.2227 6.056 24.6427 5.86C25.0627 5.65467 25.5527 5.552 26.1127 5.552C26.682 5.552 27.1767 5.65467 27.5967 5.86C28.0167 6.056 28.3667 6.32667 28.6467 6.672C28.9267 7.008 29.132 7.40933 29.2627 7.876C29.4027 8.34267 29.4727 8.842 29.4727 9.374C29.4727 9.95267 29.3934 10.4753 29.2347 10.942C29.076 11.4087 28.8474 11.81 28.5487 12.146C28.2594 12.482 27.9047 12.7433 27.4847 12.93C27.074 13.1073 26.6167 13.196 26.1127 13.196ZM28.5767 9.374C28.5767 8.94467 28.53 8.54333 28.4367 8.17C28.3434 7.79667 28.1987 7.47467 28.0027 7.204C27.8067 6.924 27.5547 6.70467 27.2467 6.546C26.9387 6.38733 26.5607 6.308 26.1127 6.308C25.674 6.308 25.296 6.39667 24.9787 6.574C24.6707 6.742 24.4187 6.97067 24.2227 7.26C24.0267 7.54 23.882 7.86667 23.7887 8.24C23.6954 8.604 23.6487 8.982 23.6487 9.374C23.6487 9.822 23.7 10.2373 23.8027 10.62C23.9147 10.9933 24.0734 11.3153 24.2787 11.586C24.484 11.8567 24.7407 12.0667 25.0487 12.216C25.3567 12.3653 25.7114 12.44 26.1127 12.44C26.5514 12.44 26.9247 12.356 27.2327 12.188C27.55 12.0107 27.8067 11.7773 28.0027 11.488C28.1987 11.1987 28.3434 10.872 28.4367 10.508C28.53 10.144 28.5767 9.766 28.5767 9.374ZM33.556 13.028C33.4533 13.0467 33.318 13.0793 33.15 13.126C32.982 13.1727 32.7953 13.196 32.59 13.196C32.17 13.196 31.848 13.0933 31.624 12.888C31.4093 12.6733 31.302 12.2953 31.302 11.754V6.448H30.28V5.748H31.302V3.732H32.142V5.748H33.5V6.448H32.142V11.418C32.142 11.5953 32.1467 11.7493 32.156 11.88C32.1653 12.0107 32.1933 12.118 32.24 12.202C32.2867 12.286 32.3567 12.3467 32.45 12.384C32.5527 12.4213 32.6927 12.44 32.87 12.44C32.982 12.44 33.094 12.4307 33.206 12.412C33.3273 12.3933 33.444 12.37 33.556 12.342V13.028ZM39.6505 9.192C39.2958 9.34133 38.9365 9.43933 38.5725 9.486C38.2085 9.53267 37.8445 9.57 37.4805 9.598C36.8365 9.64467 36.3325 9.78933 35.9685 10.032C35.6138 10.2747 35.4365 10.6433 35.4365 11.138C35.4365 11.362 35.4785 11.558 35.5625 11.726C35.6558 11.8847 35.7725 12.02 35.9125 12.132C36.0618 12.2347 36.2298 12.314 36.4165 12.37C36.6125 12.4167 36.8085 12.44 37.0045 12.44C37.3405 12.44 37.6672 12.398 37.9845 12.314C38.3018 12.23 38.5818 12.104 38.8245 11.936C39.0765 11.7587 39.2772 11.5393 39.4265 11.278C39.5758 11.0073 39.6505 10.69 39.6505 10.326V9.192ZM38.2365 8.772C38.3952 8.75333 38.5818 8.72533 38.7965 8.688C39.0205 8.65067 39.2025 8.59933 39.3425 8.534C39.4825 8.46867 39.5665 8.36133 39.5945 8.212C39.6318 8.05333 39.6505 7.90867 39.6505 7.778C39.6505 7.34867 39.5105 6.99867 39.2305 6.728C38.9598 6.448 38.4978 6.308 37.8445 6.308C37.5552 6.308 37.2892 6.336 37.0465 6.392C36.8038 6.43867 36.5892 6.52733 36.4025 6.658C36.2252 6.77933 36.0758 6.94733 35.9545 7.162C35.8425 7.36733 35.7678 7.62867 35.7305 7.946H34.8765C34.9045 7.51667 35.0025 7.15267 35.1705 6.854C35.3385 6.546 35.5532 6.29867 35.8145 6.112C36.0852 5.916 36.3932 5.776 36.7385 5.692C37.0932 5.59867 37.4665 5.552 37.8585 5.552C38.2225 5.552 38.5632 5.594 38.8805 5.678C39.2072 5.75267 39.4872 5.87867 39.7205 6.056C39.9632 6.224 40.1498 6.45267 40.2805 6.742C40.4205 7.03133 40.4905 7.386 40.4905 7.806V11.754C40.4905 12.0807 40.5465 12.2907 40.6585 12.384C40.7798 12.468 41.0178 12.4447 41.3725 12.314V12.972C41.3072 12.9907 41.2092 13.0187 41.0785 13.056C40.9572 13.0933 40.8358 13.112 40.7145 13.112C40.5838 13.112 40.4578 13.098 40.3365 13.07C40.1965 13.0513 40.0845 13.0093 40.0005 12.944C39.9165 12.8693 39.8465 12.7853 39.7905 12.692C39.7438 12.5893 39.7112 12.482 39.6925 12.37C39.6738 12.2487 39.6645 12.1227 39.6645 11.992C39.3098 12.384 38.9038 12.6827 38.4465 12.888C37.9892 13.0933 37.4945 13.196 36.9625 13.196C36.6452 13.196 36.3372 13.154 36.0385 13.07C35.7492 12.986 35.4925 12.8553 35.2685 12.678C35.0445 12.5007 34.8672 12.286 34.7365 12.034C34.6058 11.7727 34.5405 11.4647 34.5405 11.11C34.5405 9.878 35.3852 9.15 37.0745 8.926L38.2365 8.772ZM42.8098 13V2.92H43.6498V13H42.8098ZM50.2018 9.99C50.2391 10.438 50.3371 10.8207 50.4958 11.138C50.6638 11.446 50.8738 11.698 51.1258 11.894C51.3871 12.09 51.6858 12.2347 52.0218 12.328C52.3578 12.412 52.7171 12.454 53.0998 12.454C53.5478 12.454 53.9351 12.398 54.2618 12.286C54.5884 12.174 54.8544 12.0247 55.0598 11.838C55.2651 11.642 55.4144 11.418 55.5078 11.166C55.6104 10.914 55.6618 10.648 55.6618 10.368C55.6618 9.976 55.5731 9.65867 55.3958 9.416C55.2184 9.17333 54.9851 8.97733 54.6958 8.828C54.4158 8.66933 54.0891 8.54333 53.7158 8.45C53.3518 8.35667 52.9738 8.268 52.5818 8.184C52.1991 8.09067 51.8211 7.98333 51.4478 7.862C51.0838 7.74067 50.7571 7.57733 50.4678 7.372C50.1878 7.16667 49.9591 6.90533 49.7818 6.588C49.6044 6.26133 49.5158 5.85067 49.5158 5.356C49.5158 5.01067 49.5858 4.67467 49.7258 4.348C49.8751 4.02133 50.0898 3.732 50.3698 3.48C50.6591 3.228 51.0184 3.02733 51.4478 2.878C51.8771 2.72867 52.3718 2.654 52.9318 2.654C53.5011 2.654 53.9958 2.73333 54.4158 2.892C54.8451 3.05067 55.1998 3.27 55.4798 3.55C55.7598 3.82067 55.9698 4.138 56.1098 4.502C56.2498 4.866 56.3198 5.25333 56.3198 5.664H55.4098C55.4098 5.28133 55.3398 4.95 55.1998 4.67C55.0691 4.39 54.8871 4.16133 54.6538 3.984C54.4204 3.80667 54.1544 3.676 53.8558 3.592C53.5571 3.508 53.2491 3.466 52.9318 3.466C52.4464 3.466 52.0358 3.536 51.6998 3.676C51.3731 3.80667 51.1118 3.97933 50.9158 4.194C50.7198 4.40867 50.5844 4.64667 50.5098 4.908C50.4351 5.16933 50.4211 5.43067 50.4678 5.692C50.5238 6.01867 50.6544 6.28 50.8598 6.476C51.0651 6.672 51.3171 6.83533 51.6158 6.966C51.9144 7.08733 52.2411 7.19 52.5958 7.274C52.9598 7.34867 53.3284 7.43267 53.7018 7.526C54.0751 7.61 54.4344 7.71267 54.7798 7.834C55.1344 7.95533 55.4471 8.11867 55.7178 8.324C55.9884 8.52933 56.2031 8.79533 56.3618 9.122C56.5298 9.43933 56.6138 9.84067 56.6138 10.326C56.6138 11.2593 56.2918 11.9827 55.6478 12.496C55.0038 13.0093 54.0984 13.266 52.9318 13.266C52.4091 13.266 51.9238 13.196 51.4758 13.056C51.0278 12.9253 50.6404 12.7247 50.3138 12.454C49.9871 12.174 49.7304 11.8333 49.5438 11.432C49.3664 11.0213 49.2778 10.5407 49.2778 9.99H50.2018ZM59.1804 9.402C59.1804 9.81267 59.2364 10.2047 59.3484 10.578C59.4604 10.942 59.619 11.264 59.8244 11.544C60.039 11.8147 60.2957 12.034 60.5944 12.202C60.9024 12.3607 61.2477 12.44 61.6304 12.44C62.0597 12.44 62.433 12.356 62.7504 12.188C63.077 12.0107 63.343 11.7727 63.5484 11.474C63.7537 11.1753 63.903 10.83 63.9964 10.438C64.0897 10.0367 64.127 9.60733 64.1084 9.15C64.1084 8.69267 64.043 8.29133 63.9124 7.946C63.791 7.59133 63.6184 7.29267 63.3944 7.05C63.1704 6.80733 62.909 6.62533 62.6104 6.504C62.3117 6.37333 61.985 6.308 61.6304 6.308C61.2384 6.308 60.8884 6.38733 60.5804 6.546C60.2724 6.70467 60.0157 6.924 59.8104 7.204C59.605 7.47467 59.4464 7.80133 59.3344 8.184C59.2317 8.55733 59.1804 8.96333 59.1804 9.402ZM59.1804 15.856H58.3404V5.748H59.1804V7.022H59.2084C59.3297 6.78867 59.4837 6.57867 59.6704 6.392C59.8664 6.20533 60.0764 6.05133 60.3004 5.93C60.5337 5.80867 60.7717 5.71533 61.0144 5.65C61.257 5.58467 61.495 5.552 61.7284 5.552C62.3164 5.552 62.8157 5.65 63.2264 5.846C63.637 6.042 63.973 6.31267 64.2344 6.658C64.505 6.994 64.701 7.39533 64.8224 7.862C64.9437 8.32867 65.0044 8.828 65.0044 9.36C65.0044 9.864 64.939 10.3493 64.8084 10.816C64.6777 11.2827 64.477 11.6933 64.2064 12.048C63.945 12.3933 63.609 12.6733 63.1984 12.888C62.797 13.0933 62.321 13.196 61.7704 13.196C61.257 13.196 60.7624 13.084 60.2864 12.86C59.8197 12.6267 59.451 12.286 59.1804 11.838V15.856ZM72.051 8.87C72.051 8.51533 71.9996 8.184 71.897 7.876C71.8036 7.55867 71.659 7.288 71.463 7.064C71.2763 6.83067 71.0383 6.64867 70.749 6.518C70.4596 6.378 70.1283 6.308 69.755 6.308C69.3816 6.308 69.0503 6.378 68.761 6.518C68.481 6.658 68.2383 6.84467 68.033 7.078C67.837 7.31133 67.6783 7.582 67.557 7.89C67.4356 8.198 67.3563 8.52467 67.319 8.87H72.051ZM67.319 9.57C67.319 9.962 67.3703 10.3353 67.473 10.69C67.5756 11.0353 67.725 11.3387 67.921 11.6C68.1263 11.852 68.383 12.0573 68.691 12.216C68.999 12.3653 69.3536 12.44 69.755 12.44C70.3056 12.44 70.777 12.2953 71.169 12.006C71.561 11.7167 71.8223 11.306 71.953 10.774H72.891C72.7883 11.1193 72.653 11.4413 72.485 11.74C72.317 12.0293 72.107 12.286 71.855 12.51C71.603 12.7247 71.3043 12.8927 70.959 13.014C70.6136 13.1353 70.2123 13.196 69.755 13.196C69.1763 13.196 68.677 13.098 68.257 12.902C67.837 12.706 67.4916 12.44 67.221 12.104C66.9503 11.7587 66.7496 11.3573 66.619 10.9C66.4883 10.4333 66.423 9.934 66.423 9.402C66.423 8.87 66.4976 8.37067 66.647 7.904C66.8056 7.43733 67.025 7.03133 67.305 6.686C67.5943 6.33133 67.9443 6.056 68.355 5.86C68.7656 5.65467 69.2323 5.552 69.755 5.552C70.7536 5.552 71.5376 5.89733 72.107 6.588C72.6763 7.26933 72.9563 8.26333 72.947 9.57H67.319ZM75.4203 13H74.5803V5.748H75.4203V6.756C75.7563 6.40133 76.1016 6.112 76.4563 5.888C76.8203 5.664 77.2543 5.552 77.7583 5.552C78.2063 5.552 78.6216 5.63133 79.0043 5.79C79.3869 5.93933 79.7089 6.20533 79.9703 6.588C80.1476 6.84933 80.2503 7.12 80.2783 7.4C80.3156 7.67067 80.3343 7.95533 80.3343 8.254V13H79.4943V8.268C79.4943 7.61467 79.3496 7.12467 79.0603 6.798C78.7709 6.47133 78.2903 6.308 77.6183 6.308C77.3569 6.308 77.1189 6.35 76.9043 6.434C76.6896 6.50867 76.4936 6.61133 76.3163 6.742C76.1483 6.87267 76.0036 7.022 75.8823 7.19C75.7609 7.358 75.6676 7.53533 75.6023 7.722C75.5183 7.95533 75.4669 8.17933 75.4483 8.394C75.4296 8.60867 75.4203 8.842 75.4203 9.094V13ZM87.9596 9.346C87.9596 8.93533 87.9036 8.548 87.7916 8.184C87.6796 7.81067 87.5162 7.48867 87.3016 7.218C87.0962 6.938 86.8396 6.71867 86.5316 6.56C86.2329 6.392 85.8922 6.308 85.5096 6.308C85.0709 6.308 84.6929 6.39667 84.3756 6.574C84.0582 6.742 83.7969 6.97533 83.5916 7.274C83.3862 7.57267 83.2369 7.92267 83.1436 8.324C83.0502 8.716 83.0129 9.14067 83.0316 9.598C83.0316 10.0553 83.0922 10.4613 83.2136 10.816C83.3442 11.1613 83.5216 11.4553 83.7456 11.698C83.9696 11.9407 84.2309 12.1273 84.5296 12.258C84.8282 12.3793 85.1549 12.44 85.5096 12.44C85.9016 12.44 86.2516 12.3607 86.5596 12.202C86.8676 12.0433 87.1242 11.8287 87.3296 11.558C87.5349 11.278 87.6889 10.9513 87.7916 10.578C87.9036 10.1953 87.9596 9.78467 87.9596 9.346ZM87.9596 2.92H88.7996V13H87.9596V11.726H87.9316C87.8102 11.9687 87.6516 12.1833 87.4556 12.37C87.2689 12.5473 87.0589 12.6967 86.8256 12.818C86.6016 12.9393 86.3682 13.0327 86.1256 13.098C85.8829 13.1633 85.6449 13.196 85.4116 13.196C84.8236 13.196 84.3242 13.098 83.9136 12.902C83.5029 12.706 83.1622 12.44 82.8916 12.104C82.6302 11.7587 82.4389 11.3527 82.3176 10.886C82.1962 10.4193 82.1356 9.92 82.1356 9.388C82.1356 8.884 82.2009 8.39867 82.3316 7.932C82.4622 7.46533 82.6582 7.05933 82.9196 6.714C83.1902 6.35933 83.5262 6.07933 83.9276 5.874C84.3382 5.65933 84.8189 5.552 85.3696 5.552C85.8829 5.552 86.3729 5.66867 86.8396 5.902C87.3156 6.126 87.6889 6.462 87.9596 6.91V2.92ZM90.7981 13V5.748H91.6381V13H90.7981ZM90.7561 4.166V2.92H91.6801V4.166H90.7561ZM94.6156 13H93.7756V5.748H94.6156V6.756C94.9516 6.40133 95.2969 6.112 95.6516 5.888C96.0156 5.664 96.4496 5.552 96.9536 5.552C97.4016 5.552 97.8169 5.63133 98.1996 5.79C98.5822 5.93933 98.9042 6.20533 99.1656 6.588C99.3429 6.84933 99.4456 7.12 99.4736 7.4C99.5109 7.67067 99.5296 7.95533 99.5296 8.254V13H98.6896V8.268C98.6896 7.61467 98.5449 7.12467 98.2556 6.798C97.9662 6.47133 97.4856 6.308 96.8136 6.308C96.5522 6.308 96.3142 6.35 96.0996 6.434C95.8849 6.50867 95.6889 6.61133 95.5116 6.742C95.3436 6.87267 95.1989 7.022 95.0776 7.19C94.9562 7.358 94.8629 7.53533 94.7976 7.722C94.7136 7.95533 94.6622 8.17933 94.6436 8.394C94.6249 8.60867 94.6156 8.842 94.6156 9.094V13ZM107.155 9.402C107.155 8.96333 107.099 8.55733 106.987 8.184C106.884 7.80133 106.73 7.47467 106.525 7.204C106.32 6.924 106.063 6.70467 105.755 6.546C105.447 6.38733 105.097 6.308 104.705 6.308C104.35 6.308 104.024 6.37333 103.725 6.504C103.426 6.62533 103.165 6.80733 102.941 7.05C102.717 7.29267 102.54 7.59133 102.409 7.946C102.288 8.29133 102.227 8.69267 102.227 9.15C102.208 9.60733 102.246 10.0367 102.339 10.438C102.432 10.83 102.582 11.1753 102.787 11.474C102.992 11.7727 103.254 12.0107 103.571 12.188C103.888 12.356 104.266 12.44 104.705 12.44C105.088 12.44 105.428 12.3607 105.727 12.202C106.035 12.034 106.292 11.8147 106.497 11.544C106.712 11.264 106.875 10.942 106.987 10.578C107.099 10.2047 107.155 9.81267 107.155 9.402ZM107.155 5.748H107.995V12.3C107.995 12.7853 107.944 13.2473 107.841 13.686C107.748 14.134 107.575 14.526 107.323 14.862C107.071 15.198 106.726 15.464 106.287 15.66C105.848 15.8653 105.284 15.968 104.593 15.968C104.061 15.968 103.604 15.898 103.221 15.758C102.838 15.6273 102.526 15.4593 102.283 15.254C102.04 15.0487 101.854 14.82 101.723 14.568C101.602 14.3253 101.536 14.0967 101.527 13.882H102.423C102.488 14.1527 102.591 14.372 102.731 14.54C102.871 14.7173 103.034 14.8527 103.221 14.946C103.417 15.0487 103.632 15.1187 103.865 15.156C104.098 15.1933 104.341 15.212 104.593 15.212C105.162 15.212 105.62 15.114 105.965 14.918C106.31 14.722 106.572 14.4653 106.749 14.148C106.926 13.8307 107.038 13.4713 107.085 13.07C107.141 12.6687 107.164 12.258 107.155 11.838C106.884 12.286 106.511 12.6267 106.035 12.86C105.568 13.084 105.078 13.196 104.565 13.196C104.014 13.196 103.534 13.0933 103.123 12.888C102.722 12.6733 102.386 12.3933 102.115 12.048C101.854 11.6933 101.658 11.2827 101.527 10.816C101.396 10.3493 101.331 9.864 101.331 9.36C101.331 8.828 101.392 8.32867 101.513 7.862C101.634 7.39533 101.826 6.994 102.087 6.658C102.358 6.31267 102.698 6.042 103.109 5.846C103.52 5.65 104.019 5.552 104.607 5.552C104.84 5.552 105.078 5.58467 105.321 5.65C105.564 5.71533 105.797 5.80867 106.021 5.93C106.254 6.05133 106.464 6.20533 106.651 6.392C106.847 6.57867 107.006 6.78867 107.127 7.022H107.155V5.748Z" fill="black"/>
<circle cx="414.5" cy="180.5" r="3.5" fill="black"/>
<path d="M388.06 177.188C387.836 177.188 387.624 177.224 387.424 177.296C387.232 177.368 387.06 177.472 386.908 177.608C386.764 177.736 386.648 177.892 386.56 178.076C386.48 178.26 386.44 178.464 386.44 178.688C386.44 178.952 386.48 179.172 386.56 179.348C386.648 179.524 386.764 179.672 386.908 179.792C387.06 179.904 387.232 179.996 387.424 180.068C387.624 180.14 387.836 180.208 388.06 180.272V177.188ZM388.624 184.58C388.872 184.58 389.104 184.536 389.32 184.448C389.544 184.36 389.74 184.24 389.908 184.088C390.076 183.936 390.208 183.756 390.304 183.548C390.4 183.332 390.448 183.096 390.448 182.84C390.448 182.544 390.4 182.3 390.304 182.108C390.208 181.908 390.076 181.748 389.908 181.628C389.748 181.5 389.556 181.4 389.332 181.328C389.116 181.256 388.88 181.192 388.624 181.136V184.58ZM388.624 186.14H388.072V185.228C387.392 185.188 386.828 185 386.38 184.664C385.94 184.328 385.648 183.824 385.504 183.152C385.488 183.048 385.476 182.948 385.468 182.852C385.46 182.756 385.452 182.66 385.444 182.564H386.224C386.224 182.836 386.268 183.092 386.356 183.332C386.444 183.564 386.568 183.772 386.728 183.956C386.896 184.132 387.092 184.276 387.316 184.388C387.54 184.5 387.788 184.564 388.06 184.58V181.016C387.732 180.936 387.42 180.844 387.124 180.74C386.836 180.628 386.584 180.488 386.368 180.32C386.152 180.144 385.98 179.928 385.852 179.672C385.732 179.416 385.672 179.1 385.672 178.724C385.672 178.388 385.736 178.084 385.864 177.812C385.992 177.54 386.164 177.308 386.38 177.116C386.604 176.924 386.86 176.78 387.148 176.684C387.436 176.58 387.744 176.532 388.072 176.54V175.808H388.624V176.54C388.952 176.54 389.256 176.588 389.536 176.684C389.816 176.772 390.06 176.908 390.268 177.092C390.476 177.268 390.64 177.488 390.76 177.752C390.88 178.016 390.948 178.316 390.964 178.652H390.184C390.184 178.436 390.14 178.24 390.052 178.064C389.972 177.88 389.86 177.724 389.716 177.596C389.58 177.468 389.416 177.368 389.224 177.296C389.04 177.224 388.84 177.188 388.624 177.188V180.38C389.016 180.476 389.372 180.58 389.692 180.692C390.012 180.804 390.284 180.952 390.508 181.136C390.732 181.32 390.904 181.56 391.024 181.856C391.152 182.144 391.216 182.516 391.216 182.972C391.216 183.324 391.14 183.64 390.988 183.92C390.836 184.192 390.636 184.424 390.388 184.616C390.148 184.808 389.872 184.956 389.56 185.06C389.248 185.164 388.936 185.22 388.624 185.228V186.14ZM396.912 178.616C396.824 178.184 396.648 177.84 396.384 177.584C396.12 177.32 395.76 177.188 395.304 177.188C394.784 177.188 394.372 177.312 394.068 177.56C393.772 177.808 393.544 178.124 393.384 178.508C393.224 178.884 393.116 179.296 393.06 179.744C393.004 180.192 392.96 180.616 392.928 181.016C393.048 180.856 393.172 180.696 393.3 180.536C393.436 180.376 393.588 180.236 393.756 180.116C393.924 179.988 394.12 179.888 394.344 179.816C394.568 179.736 394.836 179.696 395.148 179.696C396.004 179.696 396.664 179.94 397.128 180.428C397.6 180.908 397.836 181.572 397.836 182.42C397.836 183.276 397.6 183.948 397.128 184.436C396.656 184.924 395.988 185.168 395.124 185.168C394.7 185.168 394.308 185.1 393.948 184.964C393.588 184.82 393.276 184.588 393.012 184.268C392.748 183.948 392.54 183.532 392.388 183.02C392.236 182.5 392.16 181.868 392.16 181.124C392.16 180.62 392.204 180.1 392.292 179.564C392.38 179.02 392.536 178.524 392.76 178.076C392.992 177.628 393.304 177.26 393.696 176.972C394.096 176.684 394.608 176.54 395.232 176.54C395.904 176.54 396.464 176.716 396.912 177.068C397.36 177.42 397.624 177.936 397.704 178.616H396.912ZM395.124 180.344C394.828 180.344 394.56 180.4 394.32 180.512C394.088 180.624 393.888 180.776 393.72 180.968C393.56 181.16 393.436 181.384 393.348 181.64C393.26 181.888 393.216 182.156 393.216 182.444C393.216 182.684 393.248 182.928 393.312 183.176C393.384 183.416 393.496 183.636 393.648 183.836C393.808 184.036 394.008 184.2 394.248 184.328C394.488 184.456 394.784 184.52 395.136 184.52C395.496 184.52 395.796 184.46 396.036 184.34C396.284 184.212 396.484 184.048 396.636 183.848C396.788 183.64 396.896 183.412 396.96 183.164C397.032 182.908 397.068 182.652 397.068 182.396C397.068 181.74 396.908 181.236 396.588 180.884C396.276 180.524 395.788 180.344 395.124 180.344ZM400.988 180.296C401.348 180.296 401.676 180.276 401.972 180.236C402.268 180.188 402.52 180.104 402.728 179.984C402.944 179.856 403.112 179.688 403.232 179.48C403.352 179.272 403.412 179.004 403.412 178.676C403.412 178.412 403.364 178.188 403.268 178.004C403.172 177.812 403.04 177.656 402.872 177.536C402.712 177.416 402.52 177.328 402.296 177.272C402.08 177.216 401.852 177.188 401.612 177.188C401.34 177.188 401.092 177.232 400.868 177.32C400.652 177.408 400.464 177.536 400.304 177.704C400.144 177.864 400.02 178.056 399.932 178.28C399.844 178.496 399.8 178.736 399.8 179H399.032C399.032 178.616 399.096 178.272 399.224 177.968C399.36 177.656 399.568 177.368 399.848 177.104C400.112 176.864 400.408 176.712 400.736 176.648C401.072 176.576 401.416 176.54 401.768 176.54C402.104 176.54 402.416 176.584 402.704 176.672C403 176.752 403.256 176.88 403.472 177.056C403.688 177.224 403.86 177.44 403.988 177.704C404.116 177.968 404.18 178.276 404.18 178.628C404.18 179.068 404.08 179.448 403.88 179.768C403.688 180.088 403.388 180.336 402.98 180.512C403.284 180.608 403.532 180.736 403.724 180.896C403.924 181.048 404.08 181.22 404.192 181.412C404.304 181.596 404.38 181.792 404.42 182C404.46 182.208 404.48 182.408 404.48 182.6C404.48 182.952 404.42 183.28 404.3 183.584C404.18 183.888 404.004 184.156 403.772 184.388C403.54 184.62 403.252 184.808 402.908 184.952C402.572 185.088 402.188 185.16 401.756 185.168C401.268 185.168 400.844 185.124 400.484 185.036C400.124 184.948 399.824 184.804 399.584 184.604C399.344 184.396 399.156 184.128 399.02 183.8C398.884 183.464 398.792 183.048 398.744 182.552H399.512C399.512 183.2 399.704 183.692 400.088 184.028C400.48 184.356 400.988 184.52 401.612 184.52C401.916 184.52 402.2 184.468 402.464 184.364C402.728 184.26 402.952 184.12 403.136 183.944C403.328 183.768 403.472 183.564 403.568 183.332C403.672 183.1 403.72 182.86 403.712 182.612C403.696 182.268 403.616 181.984 403.472 181.76C403.328 181.528 403.132 181.348 402.884 181.22C402.644 181.084 402.36 180.996 402.032 180.956C401.704 180.908 401.356 180.896 400.988 180.92V180.296Z" fill="black"/>
<path d="M2.936 283V274.36H4.184L7.016 281.98H7.04L9.824 274.36H11.06V283H10.244V275.296H10.22L7.388 283H6.62L3.776 275.296H3.752V283H2.936ZM15.3321 283.168C14.9321 283.16 14.5561 283.088 14.2041 282.952C13.8601 282.816 13.5561 282.612 13.2921 282.34C13.0361 282.068 12.8321 281.728 12.6801 281.32C12.5281 280.912 12.4521 280.436 12.4521 279.892C12.4521 279.436 12.5121 279.012 12.6321 278.62C12.7521 278.22 12.9321 277.872 13.1721 277.576C13.4121 277.28 13.7121 277.048 14.0721 276.88C14.4321 276.704 14.8521 276.616 15.3321 276.616C15.8201 276.616 16.2441 276.704 16.6041 276.88C16.9641 277.048 17.2641 277.28 17.5041 277.576C17.7441 277.864 17.9201 278.208 18.0321 278.608C18.1521 279.008 18.2121 279.436 18.2121 279.892C18.2121 280.388 18.1441 280.836 18.0081 281.236C17.8721 281.636 17.6761 281.98 17.4201 282.268C17.1721 282.556 16.8681 282.78 16.5081 282.94C16.1561 283.092 15.7641 283.168 15.3321 283.168ZM17.4441 279.892C17.4441 279.524 17.4041 279.18 17.3241 278.86C17.2441 278.54 17.1201 278.264 16.9521 278.032C16.7841 277.792 16.5681 277.604 16.3041 277.468C16.0401 277.332 15.7161 277.264 15.3321 277.264C14.9561 277.264 14.6321 277.34 14.3601 277.492C14.0961 277.636 13.8801 277.832 13.7121 278.08C13.5441 278.32 13.4201 278.6 13.3401 278.92C13.2601 279.232 13.2201 279.556 13.2201 279.892C13.2201 280.276 13.2641 280.632 13.3521 280.96C13.4481 281.28 13.5841 281.556 13.7601 281.788C13.9361 282.02 14.1561 282.2 14.4201 282.328C14.6841 282.456 14.9881 282.52 15.3321 282.52C15.7081 282.52 16.0281 282.448 16.2921 282.304C16.5641 282.152 16.7841 281.952 16.9521 281.704C17.1201 281.456 17.2441 281.176 17.3241 280.864C17.4041 280.552 17.4441 280.228 17.4441 279.892ZM20.2481 283H19.5281V276.784H20.2481V277.648C20.5361 277.344 20.8321 277.096 21.1361 276.904C21.4481 276.712 21.8201 276.616 22.2521 276.616C22.6361 276.616 22.9921 276.684 23.3201 276.82C23.6481 276.948 23.9241 277.176 24.1481 277.504C24.3001 277.728 24.3881 277.96 24.4121 278.2C24.4441 278.432 24.4601 278.676 24.4601 278.932V283H23.7401V278.944C23.7401 278.384 23.6161 277.964 23.3681 277.684C23.1201 277.404 22.7081 277.264 22.1321 277.264C21.9081 277.264 21.7041 277.3 21.5201 277.372C21.3361 277.436 21.1681 277.524 21.0161 277.636C20.8721 277.748 20.7481 277.876 20.6441 278.02C20.5401 278.164 20.4601 278.316 20.4041 278.476C20.3321 278.676 20.2881 278.868 20.2721 279.052C20.2561 279.236 20.2481 279.436 20.2481 279.652V283Z" fill="black"/>
<path d="M57.192 275.36H63.48V276.056H60.744V284H59.928V276.056H57.192V275.36ZM67.6424 277.784H68.3624V284H67.6424V283.136C67.5464 283.248 67.4384 283.364 67.3184 283.484C67.1984 283.604 67.0584 283.716 66.8984 283.82C66.7464 283.916 66.5664 283.996 66.3584 284.06C66.1504 284.132 65.9104 284.168 65.6384 284.168C65.2224 284.168 64.8744 284.112 64.5944 284C64.3144 283.88 64.0864 283.716 63.9104 283.508C63.7424 283.3 63.6184 283.06 63.5384 282.788C63.4664 282.508 63.4304 282.204 63.4304 281.876V277.784H64.1504V281.864C64.1504 282.4 64.2744 282.812 64.5224 283.1C64.7704 283.38 65.1784 283.52 65.7464 283.52C66.0424 283.52 66.3064 283.464 66.5384 283.352C66.7784 283.232 66.9784 283.068 67.1384 282.86C67.2984 282.652 67.4224 282.404 67.5104 282.116C67.5984 281.828 67.6424 281.512 67.6424 281.168V277.784ZM74.5984 280.46C74.5984 280.156 74.5544 279.872 74.4664 279.608C74.3864 279.336 74.2624 279.104 74.0944 278.912C73.9344 278.712 73.7304 278.556 73.4824 278.444C73.2344 278.324 72.9504 278.264 72.6304 278.264C72.3104 278.264 72.0264 278.324 71.7784 278.444C71.5384 278.564 71.3304 278.724 71.1544 278.924C70.9864 279.124 70.8504 279.356 70.7464 279.62C70.6424 279.884 70.5744 280.164 70.5424 280.46H74.5984ZM70.5424 281.06C70.5424 281.396 70.5864 281.716 70.6744 282.02C70.7624 282.316 70.8904 282.576 71.0584 282.8C71.2344 283.016 71.4544 283.192 71.7184 283.328C71.9824 283.456 72.2864 283.52 72.6304 283.52C73.1024 283.52 73.5064 283.396 73.8424 283.148C74.1784 282.9 74.4024 282.548 74.5144 282.092H75.3184C75.2304 282.388 75.1144 282.664 74.9704 282.92C74.8264 283.168 74.6464 283.388 74.4304 283.58C74.2144 283.764 73.9584 283.908 73.6624 284.012C73.3664 284.116 73.0224 284.168 72.6304 284.168C72.1344 284.168 71.7064 284.084 71.3464 283.916C70.9864 283.748 70.6904 283.52 70.4584 283.232C70.2264 282.936 70.0544 282.592 69.9424 282.2C69.8304 281.8 69.7744 281.372 69.7744 280.916C69.7744 280.46 69.8384 280.032 69.9664 279.632C70.1024 279.232 70.2904 278.884 70.5304 278.588C70.7784 278.284 71.0784 278.048 71.4304 277.88C71.7824 277.704 72.1824 277.616 72.6304 277.616C73.4864 277.616 74.1584 277.912 74.6464 278.504C75.1344 279.088 75.3744 279.94 75.3664 281.06H70.5424ZM77.1863 282.056C77.2983 282.592 77.4983 282.972 77.7863 283.196C78.0823 283.412 78.5023 283.52 79.0463 283.52C79.3103 283.52 79.5383 283.488 79.7303 283.424C79.9223 283.36 80.0783 283.276 80.1983 283.172C80.3263 283.06 80.4223 282.936 80.4863 282.8C80.5503 282.664 80.5823 282.52 80.5823 282.368C80.5823 282.064 80.4823 281.84 80.2823 281.696C80.0903 281.544 79.8463 281.428 79.5503 281.348C79.2543 281.26 78.9343 281.188 78.5903 281.132C78.2463 281.068 77.9263 280.976 77.6303 280.856C77.3343 280.736 77.0863 280.564 76.8863 280.34C76.6943 280.116 76.5983 279.8 76.5983 279.392C76.5983 278.872 76.7863 278.448 77.1623 278.12C77.5463 277.784 78.0863 277.616 78.7823 277.616C79.4543 277.616 79.9983 277.768 80.4143 278.072C80.8383 278.368 81.0943 278.868 81.1823 279.572H80.4503C80.3863 279.092 80.2023 278.756 79.8983 278.564C79.6023 278.364 79.2263 278.264 78.7703 278.264C78.3143 278.264 77.9663 278.364 77.7263 278.564C77.4863 278.756 77.3663 279.012 77.3663 279.332C77.3663 279.612 77.4623 279.828 77.6543 279.98C77.8543 280.124 78.1023 280.244 78.3983 280.34C78.6943 280.428 79.0143 280.508 79.3583 280.58C79.7023 280.652 80.0223 280.756 80.3183 280.892C80.6143 281.02 80.8583 281.196 81.0503 281.42C81.2503 281.644 81.3503 281.956 81.3503 282.356C81.3503 282.652 81.2863 282.916 81.1583 283.148C81.0303 283.372 80.8543 283.56 80.6303 283.712C80.4063 283.864 80.1383 283.976 79.8263 284.048C79.5223 284.128 79.1863 284.168 78.8183 284.168C78.4503 284.168 78.1223 284.112 77.8343 284C77.5543 283.896 77.3143 283.748 77.1143 283.556C76.9143 283.364 76.7583 283.14 76.6463 282.884C76.5343 282.628 76.4703 282.352 76.4543 282.056H77.1863Z" fill="black"/>
<path d="M120.752 282.848H120.776L122.66 275.36H123.5L121.232 284H120.332L118.328 276.368H118.304L116.3 284H115.4L113.168 275.36H113.984L115.844 282.848H115.868L117.872 275.36H118.784L120.752 282.848ZM128.817 280.46C128.817 280.156 128.773 279.872 128.685 279.608C128.605 279.336 128.481 279.104 128.313 278.912C128.153 278.712 127.949 278.556 127.701 278.444C127.453 278.324 127.169 278.264 126.849 278.264C126.529 278.264 126.245 278.324 125.997 278.444C125.757 278.564 125.549 278.724 125.373 278.924C125.205 279.124 125.069 279.356 124.965 279.62C124.861 279.884 124.793 280.164 124.761 280.46H128.817ZM124.761 281.06C124.761 281.396 124.805 281.716 124.893 282.02C124.981 282.316 125.109 282.576 125.277 282.8C125.453 283.016 125.673 283.192 125.937 283.328C126.201 283.456 126.505 283.52 126.849 283.52C127.321 283.52 127.725 283.396 128.061 283.148C128.397 282.9 128.621 282.548 128.733 282.092H129.537C129.449 282.388 129.333 282.664 129.189 282.92C129.045 283.168 128.865 283.388 128.649 283.58C128.433 283.764 128.177 283.908 127.881 284.012C127.585 284.116 127.241 284.168 126.849 284.168C126.353 284.168 125.925 284.084 125.565 283.916C125.205 283.748 124.909 283.52 124.677 283.232C124.445 282.936 124.273 282.592 124.161 282.2C124.049 281.8 123.993 281.372 123.993 280.916C123.993 280.46 124.057 280.032 124.185 279.632C124.321 279.232 124.509 278.884 124.749 278.588C124.997 278.284 125.297 278.048 125.649 277.88C126.001 277.704 126.401 277.616 126.849 277.616C127.705 277.616 128.377 277.912 128.865 278.504C129.353 279.088 129.593 279.94 129.585 281.06H124.761ZM135.785 280.868C135.785 280.516 135.737 280.184 135.641 279.872C135.545 279.552 135.405 279.276 135.221 279.044C135.045 278.804 134.825 278.616 134.561 278.48C134.305 278.336 134.013 278.264 133.685 278.264C133.309 278.264 132.985 278.34 132.713 278.492C132.441 278.636 132.217 278.836 132.041 279.092C131.865 279.348 131.737 279.648 131.657 279.992C131.577 280.328 131.545 280.692 131.561 281.084C131.561 281.476 131.613 281.824 131.717 282.128C131.829 282.424 131.981 282.676 132.173 282.884C132.365 283.092 132.589 283.252 132.845 283.364C133.101 283.468 133.381 283.52 133.685 283.52C134.021 283.52 134.321 283.452 134.585 283.316C134.849 283.18 135.069 282.996 135.245 282.764C135.421 282.524 135.553 282.244 135.641 281.924C135.737 281.596 135.785 281.244 135.785 280.868ZM135.785 275.36H136.505V284H135.785V282.908H135.761C135.657 283.116 135.521 283.3 135.353 283.46C135.193 283.612 135.013 283.74 134.813 283.844C134.621 283.948 134.421 284.028 134.213 284.084C134.005 284.14 133.801 284.168 133.601 284.168C133.097 284.168 132.669 284.084 132.317 283.916C131.965 283.748 131.673 283.52 131.441 283.232C131.217 282.936 131.053 282.588 130.949 282.188C130.845 281.788 130.793 281.36 130.793 280.904C130.793 280.472 130.849 280.056 130.961 279.656C131.073 279.256 131.241 278.908 131.465 278.612C131.697 278.308 131.985 278.068 132.329 277.892C132.681 277.708 133.093 277.616 133.565 277.616C134.005 277.616 134.425 277.716 134.825 277.916C135.233 278.108 135.553 278.396 135.785 278.78V275.36Z" fill="black"/>
<path d="M169.192 275.36H175.48V276.056H172.744V284H171.928V276.056H169.192V275.36ZM176.532 284V275.36H177.252V278.648C177.54 278.344 177.836 278.096 178.14 277.904C178.452 277.712 178.824 277.616 179.256 277.616C179.64 277.616 179.996 277.684 180.324 277.82C180.652 277.948 180.928 278.176 181.152 278.504C181.304 278.728 181.392 278.96 181.416 279.2C181.448 279.432 181.464 279.676 181.464 279.932V284H180.744V279.944C180.744 279.384 180.62 278.964 180.372 278.684C180.124 278.404 179.712 278.264 179.136 278.264C178.912 278.264 178.708 278.3 178.524 278.372C178.34 278.436 178.172 278.524 178.02 278.636C177.876 278.748 177.752 278.876 177.648 279.02C177.544 279.164 177.464 279.316 177.408 279.476C177.336 279.676 177.292 279.868 177.276 280.052C177.26 280.236 177.252 280.436 177.252 280.652V284H176.532ZM187.412 277.784H188.132V284H187.412V283.136C187.316 283.248 187.208 283.364 187.088 283.484C186.968 283.604 186.828 283.716 186.668 283.82C186.516 283.916 186.336 283.996 186.128 284.06C185.92 284.132 185.68 284.168 185.408 284.168C184.992 284.168 184.644 284.112 184.364 284C184.084 283.88 183.856 283.716 183.68 283.508C183.512 283.3 183.388 283.06 183.308 282.788C183.236 282.508 183.2 282.204 183.2 281.876V277.784H183.92V281.864C183.92 282.4 184.044 282.812 184.292 283.1C184.54 283.38 184.948 283.52 185.516 283.52C185.812 283.52 186.076 283.464 186.308 283.352C186.548 283.232 186.748 283.068 186.908 282.86C187.068 282.652 187.192 282.404 187.28 282.116C187.368 281.828 187.412 281.512 187.412 281.168V277.784ZM190.624 284H189.904V277.784H190.624V278.948H190.648C190.848 278.452 191.104 278.108 191.416 277.916C191.736 277.716 192.156 277.616 192.676 277.616V278.396C192.268 278.388 191.932 278.452 191.668 278.588C191.404 278.724 191.192 278.908 191.032 279.14C190.88 279.372 190.772 279.648 190.708 279.968C190.652 280.28 190.624 280.608 190.624 280.952V284ZM194.284 282.056C194.396 282.592 194.596 282.972 194.884 283.196C195.18 283.412 195.6 283.52 196.144 283.52C196.408 283.52 196.636 283.488 196.828 283.424C197.02 283.36 197.176 283.276 197.296 283.172C197.424 283.06 197.52 282.936 197.584 282.8C197.648 282.664 197.68 282.52 197.68 282.368C197.68 282.064 197.58 281.84 197.38 281.696C197.188 281.544 196.944 281.428 196.648 281.348C196.352 281.26 196.032 281.188 195.688 281.132C195.344 281.068 195.024 280.976 194.728 280.856C194.432 280.736 194.184 280.564 193.984 280.34C193.792 280.116 193.696 279.8 193.696 279.392C193.696 278.872 193.884 278.448 194.26 278.12C194.644 277.784 195.184 277.616 195.88 277.616C196.552 277.616 197.096 277.768 197.512 278.072C197.936 278.368 198.192 278.868 198.28 279.572H197.548C197.484 279.092 197.3 278.756 196.996 278.564C196.7 278.364 196.324 278.264 195.868 278.264C195.412 278.264 195.064 278.364 194.824 278.564C194.584 278.756 194.464 279.012 194.464 279.332C194.464 279.612 194.56 279.828 194.752 279.98C194.952 280.124 195.2 280.244 195.496 280.34C195.792 280.428 196.112 280.508 196.456 280.58C196.8 280.652 197.12 280.756 197.416 280.892C197.712 281.02 197.956 281.196 198.148 281.42C198.348 281.644 198.448 281.956 198.448 282.356C198.448 282.652 198.384 282.916 198.256 283.148C198.128 283.372 197.952 283.56 197.728 283.712C197.504 283.864 197.236 283.976 196.924 284.048C196.62 284.128 196.284 284.168 195.916 284.168C195.548 284.168 195.22 284.112 194.932 284C194.652 283.896 194.412 283.748 194.212 283.556C194.012 283.364 193.856 283.14 193.744 282.884C193.632 282.628 193.568 282.352 193.552 282.056H194.284Z" fill="black"/>
<path d="M378.936 284V275.36H380.184L383.016 282.98H383.04L385.824 275.36H387.06V284H386.244V276.296H386.22L383.388 284H382.62L379.776 276.296H379.752V284H378.936ZM391.332 284.168C390.932 284.16 390.556 284.088 390.204 283.952C389.86 283.816 389.556 283.612 389.292 283.34C389.036 283.068 388.832 282.728 388.68 282.32C388.528 281.912 388.452 281.436 388.452 280.892C388.452 280.436 388.512 280.012 388.632 279.62C388.752 279.22 388.932 278.872 389.172 278.576C389.412 278.28 389.712 278.048 390.072 277.88C390.432 277.704 390.852 277.616 391.332 277.616C391.82 277.616 392.244 277.704 392.604 277.88C392.964 278.048 393.264 278.28 393.504 278.576C393.744 278.864 393.92 279.208 394.032 279.608C394.152 280.008 394.212 280.436 394.212 280.892C394.212 281.388 394.144 281.836 394.008 282.236C393.872 282.636 393.676 282.98 393.42 283.268C393.172 283.556 392.868 283.78 392.508 283.94C392.156 284.092 391.764 284.168 391.332 284.168ZM393.444 280.892C393.444 280.524 393.404 280.18 393.324 279.86C393.244 279.54 393.12 279.264 392.952 279.032C392.784 278.792 392.568 278.604 392.304 278.468C392.04 278.332 391.716 278.264 391.332 278.264C390.956 278.264 390.632 278.34 390.36 278.492C390.096 278.636 389.88 278.832 389.712 279.08C389.544 279.32 389.42 279.6 389.34 279.92C389.26 280.232 389.22 280.556 389.22 280.892C389.22 281.276 389.264 281.632 389.352 281.96C389.448 282.28 389.584 282.556 389.76 282.788C389.936 283.02 390.156 283.2 390.42 283.328C390.684 283.456 390.988 283.52 391.332 283.52C391.708 283.52 392.028 283.448 392.292 283.304C392.564 283.152 392.784 282.952 392.952 282.704C393.12 282.456 393.244 282.176 393.324 281.864C393.404 281.552 393.444 281.228 393.444 280.892ZM396.248 284H395.528V277.784H396.248V278.648C396.536 278.344 396.832 278.096 397.136 277.904C397.448 277.712 397.82 277.616 398.252 277.616C398.636 277.616 398.992 277.684 399.32 277.82C399.648 277.948 399.924 278.176 400.148 278.504C400.3 278.728 400.388 278.96 400.412 279.2C400.444 279.432 400.46 279.676 400.46 279.932V284H399.74V279.944C399.74 279.384 399.616 278.964 399.368 278.684C399.12 278.404 398.708 278.264 398.132 278.264C397.908 278.264 397.704 278.3 397.52 278.372C397.336 278.436 397.168 278.524 397.016 278.636C396.872 278.748 396.748 278.876 396.644 279.02C396.54 279.164 396.46 279.316 396.404 279.476C396.332 279.676 396.288 279.868 396.272 280.052C396.256 280.236 396.248 280.436 396.248 280.652V284Z" fill="black"/>
<path d="M433.192 276.36H439.48V277.056H436.744V285H435.928V277.056H433.192V276.36ZM443.642 278.784H444.362V285H443.642V284.136C443.546 284.248 443.438 284.364 443.318 284.484C443.198 284.604 443.058 284.716 442.898 284.82C442.746 284.916 442.566 284.996 442.358 285.06C442.15 285.132 441.91 285.168 441.638 285.168C441.222 285.168 440.874 285.112 440.594 285C440.314 284.88 440.086 284.716 439.91 284.508C439.742 284.3 439.618 284.06 439.538 283.788C439.466 283.508 439.43 283.204 439.43 282.876V278.784H440.15V282.864C440.15 283.4 440.274 283.812 440.522 284.1C440.77 284.38 441.178 284.52 441.746 284.52C442.042 284.52 442.306 284.464 442.538 284.352C442.778 284.232 442.978 284.068 443.138 283.86C443.298 283.652 443.422 283.404 443.51 283.116C443.598 282.828 443.642 282.512 443.642 282.168V278.784ZM450.598 281.46C450.598 281.156 450.554 280.872 450.466 280.608C450.386 280.336 450.262 280.104 450.094 279.912C449.934 279.712 449.73 279.556 449.482 279.444C449.234 279.324 448.95 279.264 448.63 279.264C448.31 279.264 448.026 279.324 447.778 279.444C447.538 279.564 447.33 279.724 447.154 279.924C446.986 280.124 446.85 280.356 446.746 280.62C446.642 280.884 446.574 281.164 446.542 281.46H450.598ZM446.542 282.06C446.542 282.396 446.586 282.716 446.674 283.02C446.762 283.316 446.89 283.576 447.058 283.8C447.234 284.016 447.454 284.192 447.718 284.328C447.982 284.456 448.286 284.52 448.63 284.52C449.102 284.52 449.506 284.396 449.842 284.148C450.178 283.9 450.402 283.548 450.514 283.092H451.318C451.23 283.388 451.114 283.664 450.97 283.92C450.826 284.168 450.646 284.388 450.43 284.58C450.214 284.764 449.958 284.908 449.662 285.012C449.366 285.116 449.022 285.168 448.63 285.168C448.134 285.168 447.706 285.084 447.346 284.916C446.986 284.748 446.69 284.52 446.458 284.232C446.226 283.936 446.054 283.592 445.942 283.2C445.83 282.8 445.774 282.372 445.774 281.916C445.774 281.46 445.838 281.032 445.966 280.632C446.102 280.232 446.29 279.884 446.53 279.588C446.778 279.284 447.078 279.048 447.43 278.88C447.782 278.704 448.182 278.616 448.63 278.616C449.486 278.616 450.158 278.912 450.646 279.504C451.134 280.088 451.374 280.94 451.366 282.06H446.542ZM453.186 283.056C453.298 283.592 453.498 283.972 453.786 284.196C454.082 284.412 454.502 284.52 455.046 284.52C455.31 284.52 455.538 284.488 455.73 284.424C455.922 284.36 456.078 284.276 456.198 284.172C456.326 284.06 456.422 283.936 456.486 283.8C456.55 283.664 456.582 283.52 456.582 283.368C456.582 283.064 456.482 282.84 456.282 282.696C456.09 282.544 455.846 282.428 455.55 282.348C455.254 282.26 454.934 282.188 454.59 282.132C454.246 282.068 453.926 281.976 453.63 281.856C453.334 281.736 453.086 281.564 452.886 281.34C452.694 281.116 452.598 280.8 452.598 280.392C452.598 279.872 452.786 279.448 453.162 279.12C453.546 278.784 454.086 278.616 454.782 278.616C455.454 278.616 455.998 278.768 456.414 279.072C456.838 279.368 457.094 279.868 457.182 280.572H456.45C456.386 280.092 456.202 279.756 455.898 279.564C455.602 279.364 455.226 279.264 454.77 279.264C454.314 279.264 453.966 279.364 453.726 279.564C453.486 279.756 453.366 280.012 453.366 280.332C453.366 280.612 453.462 280.828 453.654 280.98C453.854 281.124 454.102 281.244 454.398 281.34C454.694 281.428 455.014 281.508 455.358 281.58C455.702 281.652 456.022 281.756 456.318 281.892C456.614 282.02 456.858 282.196 457.05 282.42C457.25 282.644 457.35 282.956 457.35 283.356C457.35 283.652 457.286 283.916 457.158 284.148C457.03 284.372 456.854 284.56 456.63 284.712C456.406 284.864 456.138 284.976 455.826 285.048C455.522 285.128 455.186 285.168 454.818 285.168C454.45 285.168 454.122 285.112 453.834 285C453.554 284.896 453.314 284.748 453.114 284.556C452.914 284.364 452.758 284.14 452.646 283.884C452.534 283.628 452.47 283.352 452.454 283.056H453.186Z" fill="black"/>
<path d="M496.752 283.848H496.776L498.66 276.36H499.5L497.232 285H496.332L494.328 277.368H494.304L492.3 285H491.4L489.168 276.36H489.984L491.844 283.848H491.868L493.872 276.36H494.784L496.752 283.848ZM504.817 281.46C504.817 281.156 504.773 280.872 504.685 280.608C504.605 280.336 504.481 280.104 504.313 279.912C504.153 279.712 503.949 279.556 503.701 279.444C503.453 279.324 503.169 279.264 502.849 279.264C502.529 279.264 502.245 279.324 501.997 279.444C501.757 279.564 501.549 279.724 501.373 279.924C501.205 280.124 501.069 280.356 500.965 280.62C500.861 280.884 500.793 281.164 500.761 281.46H504.817ZM500.761 282.06C500.761 282.396 500.805 282.716 500.893 283.02C500.981 283.316 501.109 283.576 501.277 283.8C501.453 284.016 501.673 284.192 501.937 284.328C502.201 284.456 502.505 284.52 502.849 284.52C503.321 284.52 503.725 284.396 504.061 284.148C504.397 283.9 504.621 283.548 504.733 283.092H505.537C505.449 283.388 505.333 283.664 505.189 283.92C505.045 284.168 504.865 284.388 504.649 284.58C504.433 284.764 504.177 284.908 503.881 285.012C503.585 285.116 503.241 285.168 502.849 285.168C502.353 285.168 501.925 285.084 501.565 284.916C501.205 284.748 500.909 284.52 500.677 284.232C500.445 283.936 500.273 283.592 500.161 283.2C500.049 282.8 499.993 282.372 499.993 281.916C499.993 281.46 500.057 281.032 500.185 280.632C500.321 280.232 500.509 279.884 500.749 279.588C500.997 279.284 501.297 279.048 501.649 278.88C502.001 278.704 502.401 278.616 502.849 278.616C503.705 278.616 504.377 278.912 504.865 279.504C505.353 280.088 505.593 280.94 505.585 282.06H500.761ZM511.785 281.868C511.785 281.516 511.737 281.184 511.641 280.872C511.545 280.552 511.405 280.276 511.221 280.044C511.045 279.804 510.825 279.616 510.561 279.48C510.305 279.336 510.013 279.264 509.685 279.264C509.309 279.264 508.985 279.34 508.713 279.492C508.441 279.636 508.217 279.836 508.041 280.092C507.865 280.348 507.737 280.648 507.657 280.992C507.577 281.328 507.545 281.692 507.561 282.084C507.561 282.476 507.613 282.824 507.717 283.128C507.829 283.424 507.981 283.676 508.173 283.884C508.365 284.092 508.589 284.252 508.845 284.364C509.101 284.468 509.381 284.52 509.685 284.52C510.021 284.52 510.321 284.452 510.585 284.316C510.849 284.18 511.069 283.996 511.245 283.764C511.421 283.524 511.553 283.244 511.641 282.924C511.737 282.596 511.785 282.244 511.785 281.868ZM511.785 276.36H512.505V285H511.785V283.908H511.761C511.657 284.116 511.521 284.3 511.353 284.46C511.193 284.612 511.013 284.74 510.813 284.844C510.621 284.948 510.421 285.028 510.213 285.084C510.005 285.14 509.801 285.168 509.601 285.168C509.097 285.168 508.669 285.084 508.317 284.916C507.965 284.748 507.673 284.52 507.441 284.232C507.217 283.936 507.053 283.588 506.949 283.188C506.845 282.788 506.793 282.36 506.793 281.904C506.793 281.472 506.849 281.056 506.961 280.656C507.073 280.256 507.241 279.908 507.465 279.612C507.697 279.308 507.985 279.068 508.329 278.892C508.681 278.708 509.093 278.616 509.565 278.616C510.005 278.616 510.425 278.716 510.825 278.916C511.233 279.108 511.553 279.396 511.785 279.78V276.36Z" fill="black"/>
<path d="M545.192 276.36H551.48V277.056H548.744V285H547.928V277.056H545.192V276.36ZM552.532 285V276.36H553.252V279.648C553.54 279.344 553.836 279.096 554.14 278.904C554.452 278.712 554.824 278.616 555.256 278.616C555.64 278.616 555.996 278.684 556.324 278.82C556.652 278.948 556.928 279.176 557.152 279.504C557.304 279.728 557.392 279.96 557.416 280.2C557.448 280.432 557.464 280.676 557.464 280.932V285H556.744V280.944C556.744 280.384 556.62 279.964 556.372 279.684C556.124 279.404 555.712 279.264 555.136 279.264C554.912 279.264 554.708 279.3 554.524 279.372C554.34 279.436 554.172 279.524 554.02 279.636C553.876 279.748 553.752 279.876 553.648 280.02C553.544 280.164 553.464 280.316 553.408 280.476C553.336 280.676 553.292 280.868 553.276 281.052C553.26 281.236 553.252 281.436 553.252 281.652V285H552.532ZM563.412 278.784H564.132V285H563.412V284.136C563.316 284.248 563.208 284.364 563.088 284.484C562.968 284.604 562.828 284.716 562.668 284.82C562.516 284.916 562.336 284.996 562.128 285.06C561.92 285.132 561.68 285.168 561.408 285.168C560.992 285.168 560.644 285.112 560.364 285C560.084 284.88 559.856 284.716 559.68 284.508C559.512 284.3 559.388 284.06 559.308 283.788C559.236 283.508 559.2 283.204 559.2 282.876V278.784H559.92V282.864C559.92 283.4 560.044 283.812 560.292 284.1C560.54 284.38 560.948 284.52 561.516 284.52C561.812 284.52 562.076 284.464 562.308 284.352C562.548 284.232 562.748 284.068 562.908 283.86C563.068 283.652 563.192 283.404 563.28 283.116C563.368 282.828 563.412 282.512 563.412 282.168V278.784ZM566.624 285H565.904V278.784H566.624V279.948H566.648C566.848 279.452 567.104 279.108 567.416 278.916C567.736 278.716 568.156 278.616 568.676 278.616V279.396C568.268 279.388 567.932 279.452 567.668 279.588C567.404 279.724 567.192 279.908 567.032 280.14C566.88 280.372 566.772 280.648 566.708 280.968C566.652 281.28 566.624 281.608 566.624 281.952V285ZM570.284 283.056C570.396 283.592 570.596 283.972 570.884 284.196C571.18 284.412 571.6 284.52 572.144 284.52C572.408 284.52 572.636 284.488 572.828 284.424C573.02 284.36 573.176 284.276 573.296 284.172C573.424 284.06 573.52 283.936 573.584 283.8C573.648 283.664 573.68 283.52 573.68 283.368C573.68 283.064 573.58 282.84 573.38 282.696C573.188 282.544 572.944 282.428 572.648 282.348C572.352 282.26 572.032 282.188 571.688 282.132C571.344 282.068 571.024 281.976 570.728 281.856C570.432 281.736 570.184 281.564 569.984 281.34C569.792 281.116 569.696 280.8 569.696 280.392C569.696 279.872 569.884 279.448 570.26 279.12C570.644 278.784 571.184 278.616 571.88 278.616C572.552 278.616 573.096 278.768 573.512 279.072C573.936 279.368 574.192 279.868 574.28 280.572H573.548C573.484 280.092 573.3 279.756 572.996 279.564C572.7 279.364 572.324 279.264 571.868 279.264C571.412 279.264 571.064 279.364 570.824 279.564C570.584 279.756 570.464 280.012 570.464 280.332C570.464 280.612 570.56 280.828 570.752 280.98C570.952 281.124 571.2 281.244 571.496 281.34C571.792 281.428 572.112 281.508 572.456 281.58C572.8 281.652 573.12 281.756 573.416 281.892C573.712 282.02 573.956 282.196 574.148 282.42C574.348 282.644 574.448 282.956 574.448 283.356C574.448 283.652 574.384 283.916 574.256 284.148C574.128 284.372 573.952 284.56 573.728 284.712C573.504 284.864 573.236 284.976 572.924 285.048C572.62 285.128 572.284 285.168 571.916 285.168C571.548 285.168 571.22 285.112 570.932 285C570.652 284.896 570.412 284.748 570.212 284.556C570.012 284.364 569.856 284.14 569.744 283.884C569.632 283.628 569.568 283.352 569.552 283.056H570.284Z" fill="black"/>
<path d="M230.888 284V275.36H236.456V276.056H231.704V279.176H236.024V279.872H231.704V284H230.888ZM238.288 284H237.568V277.784H238.288V278.948H238.312C238.512 278.452 238.768 278.108 239.08 277.916C239.4 277.716 239.82 277.616 240.34 277.616V278.396C239.932 278.388 239.596 278.452 239.332 278.588C239.068 278.724 238.856 278.908 238.696 279.14C238.544 279.372 238.436 279.648 238.372 279.968C238.316 280.28 238.288 280.608 238.288 280.952V284ZM241.425 284V277.784H242.145V284H241.425ZM241.389 276.428V275.36H242.181V276.428H241.389Z" fill="black"/>
<path d="M606.888 285V276.36H612.456V277.056H607.704V280.176H612.024V280.872H607.704V285H606.888ZM614.288 285H613.568V278.784H614.288V279.948H614.312C614.512 279.452 614.768 279.108 615.08 278.916C615.4 278.716 615.82 278.616 616.34 278.616V279.396C615.932 279.388 615.596 279.452 615.332 279.588C615.068 279.724 614.856 279.908 614.696 280.14C614.544 280.372 614.436 280.648 614.372 280.968C614.316 281.28 614.288 281.608 614.288 281.952V285ZM617.425 285V278.784H618.145V285H617.425ZM617.389 277.428V276.36H618.181V277.428H617.389Z" fill="black"/>
<path d="M276.308 281.42C276.34 281.804 276.424 282.132 276.56 282.404C276.704 282.668 276.884 282.884 277.1 283.052C277.324 283.22 277.58 283.344 277.868 283.424C278.156 283.496 278.464 283.532 278.792 283.532C279.176 283.532 279.508 283.484 279.788 283.388C280.068 283.292 280.296 283.164 280.472 283.004C280.648 282.836 280.776 282.644 280.856 282.428C280.944 282.212 280.988 281.984 280.988 281.744C280.988 281.408 280.912 281.136 280.76 280.928C280.608 280.72 280.408 280.552 280.16 280.424C279.92 280.288 279.64 280.18 279.32 280.1C279.008 280.02 278.684 279.944 278.348 279.872C278.02 279.792 277.696 279.7 277.376 279.596C277.064 279.492 276.784 279.352 276.536 279.176C276.296 279 276.1 278.776 275.948 278.504C275.796 278.224 275.72 277.872 275.72 277.448C275.72 277.152 275.78 276.864 275.9 276.584C276.028 276.304 276.212 276.056 276.452 275.84C276.7 275.624 277.008 275.452 277.376 275.324C277.744 275.196 278.168 275.132 278.648 275.132C279.136 275.132 279.56 275.2 279.92 275.336C280.288 275.472 280.592 275.66 280.832 275.9C281.072 276.132 281.252 276.404 281.372 276.716C281.492 277.028 281.552 277.36 281.552 277.712H280.772C280.772 277.384 280.712 277.1 280.592 276.86C280.48 276.62 280.324 276.424 280.124 276.272C279.924 276.12 279.696 276.008 279.44 275.936C279.184 275.864 278.92 275.828 278.648 275.828C278.232 275.828 277.88 275.888 277.592 276.008C277.312 276.12 277.088 276.268 276.92 276.452C276.752 276.636 276.636 276.84 276.572 277.064C276.508 277.288 276.496 277.512 276.536 277.736C276.584 278.016 276.696 278.24 276.872 278.408C277.048 278.576 277.264 278.716 277.52 278.828C277.776 278.932 278.056 279.02 278.36 279.092C278.672 279.156 278.988 279.228 279.308 279.308C279.628 279.38 279.936 279.468 280.232 279.572C280.536 279.676 280.804 279.816 281.036 279.992C281.268 280.168 281.452 280.396 281.588 280.676C281.732 280.948 281.804 281.292 281.804 281.708C281.804 282.508 281.528 283.128 280.976 283.568C280.424 284.008 279.648 284.228 278.648 284.228C278.2 284.228 277.784 284.168 277.4 284.048C277.016 283.936 276.684 283.764 276.404 283.532C276.124 283.292 275.904 283 275.744 282.656C275.592 282.304 275.516 281.892 275.516 281.42H276.308ZM287.268 280.736C286.964 280.864 286.656 280.948 286.344 280.988C286.032 281.028 285.72 281.06 285.408 281.084C284.856 281.124 284.424 281.248 284.112 281.456C283.808 281.664 283.656 281.98 283.656 282.404C283.656 282.596 283.692 282.764 283.764 282.908C283.844 283.044 283.944 283.16 284.064 283.256C284.192 283.344 284.336 283.412 284.496 283.46C284.664 283.5 284.832 283.52 285 283.52C285.288 283.52 285.568 283.484 285.84 283.412C286.112 283.34 286.352 283.232 286.56 283.088C286.776 282.936 286.948 282.748 287.076 282.524C287.204 282.292 287.268 282.02 287.268 281.708V280.736ZM286.056 280.376C286.192 280.36 286.352 280.336 286.536 280.304C286.728 280.272 286.884 280.228 287.004 280.172C287.124 280.116 287.196 280.024 287.22 279.896C287.252 279.76 287.268 279.636 287.268 279.524C287.268 279.156 287.148 278.856 286.908 278.624C286.676 278.384 286.28 278.264 285.72 278.264C285.472 278.264 285.244 278.288 285.036 278.336C284.828 278.376 284.644 278.452 284.484 278.564C284.332 278.668 284.204 278.812 284.1 278.996C284.004 279.172 283.94 279.396 283.908 279.668H283.176C283.2 279.3 283.284 278.988 283.428 278.732C283.572 278.468 283.756 278.256 283.98 278.096C284.212 277.928 284.476 277.808 284.772 277.736C285.076 277.656 285.396 277.616 285.732 277.616C286.044 277.616 286.336 277.652 286.608 277.724C286.888 277.788 287.128 277.896 287.328 278.048C287.536 278.192 287.696 278.388 287.808 278.636C287.928 278.884 287.988 279.188 287.988 279.548V282.932C287.988 283.212 288.036 283.392 288.132 283.472C288.236 283.544 288.44 283.524 288.744 283.412V283.976C288.688 283.992 288.604 284.016 288.492 284.048C288.388 284.08 288.284 284.096 288.18 284.096C288.068 284.096 287.96 284.084 287.856 284.06C287.736 284.044 287.64 284.008 287.568 283.952C287.496 283.888 287.436 283.816 287.388 283.736C287.348 283.648 287.32 283.556 287.304 283.46C287.288 283.356 287.28 283.248 287.28 283.136C286.976 283.472 286.628 283.728 286.236 283.904C285.844 284.08 285.42 284.168 284.964 284.168C284.692 284.168 284.428 284.132 284.172 284.06C283.924 283.988 283.704 283.876 283.512 283.724C283.32 283.572 283.168 283.388 283.056 283.172C282.944 282.948 282.888 282.684 282.888 282.38C282.888 281.324 283.612 280.7 285.06 280.508L286.056 280.376ZM292.052 284.024C291.964 284.04 291.848 284.068 291.704 284.108C291.56 284.148 291.4 284.168 291.224 284.168C290.864 284.168 290.588 284.08 290.396 283.904C290.212 283.72 290.12 283.396 290.12 282.932V278.384H289.244V277.784H290.12V276.056H290.84V277.784H292.004V278.384H290.84V282.644C290.84 282.796 290.844 282.928 290.852 283.04C290.86 283.152 290.884 283.244 290.924 283.316C290.964 283.388 291.024 283.44 291.104 283.472C291.192 283.504 291.312 283.52 291.464 283.52C291.56 283.52 291.656 283.512 291.752 283.496C291.856 283.48 291.956 283.46 292.052 283.436V284.024Z" fill="black"/>
<path d="M652.308 281.42C652.34 281.804 652.424 282.132 652.56 282.404C652.704 282.668 652.884 282.884 653.1 283.052C653.324 283.22 653.58 283.344 653.868 283.424C654.156 283.496 654.464 283.532 654.792 283.532C655.176 283.532 655.508 283.484 655.788 283.388C656.068 283.292 656.296 283.164 656.472 283.004C656.648 282.836 656.776 282.644 656.856 282.428C656.944 282.212 656.988 281.984 656.988 281.744C656.988 281.408 656.912 281.136 656.76 280.928C656.608 280.72 656.408 280.552 656.16 280.424C655.92 280.288 655.64 280.18 655.32 280.1C655.008 280.02 654.684 279.944 654.348 279.872C654.02 279.792 653.696 279.7 653.376 279.596C653.064 279.492 652.784 279.352 652.536 279.176C652.296 279 652.1 278.776 651.948 278.504C651.796 278.224 651.72 277.872 651.72 277.448C651.72 277.152 651.78 276.864 651.9 276.584C652.028 276.304 652.212 276.056 652.452 275.84C652.7 275.624 653.008 275.452 653.376 275.324C653.744 275.196 654.168 275.132 654.648 275.132C655.136 275.132 655.56 275.2 655.92 275.336C656.288 275.472 656.592 275.66 656.832 275.9C657.072 276.132 657.252 276.404 657.372 276.716C657.492 277.028 657.552 277.36 657.552 277.712H656.772C656.772 277.384 656.712 277.1 656.592 276.86C656.48 276.62 656.324 276.424 656.124 276.272C655.924 276.12 655.696 276.008 655.44 275.936C655.184 275.864 654.92 275.828 654.648 275.828C654.232 275.828 653.88 275.888 653.592 276.008C653.312 276.12 653.088 276.268 652.92 276.452C652.752 276.636 652.636 276.84 652.572 277.064C652.508 277.288 652.496 277.512 652.536 277.736C652.584 278.016 652.696 278.24 652.872 278.408C653.048 278.576 653.264 278.716 653.52 278.828C653.776 278.932 654.056 279.02 654.36 279.092C654.672 279.156 654.988 279.228 655.308 279.308C655.628 279.38 655.936 279.468 656.232 279.572C656.536 279.676 656.804 279.816 657.036 279.992C657.268 280.168 657.452 280.396 657.588 280.676C657.732 280.948 657.804 281.292 657.804 281.708C657.804 282.508 657.528 283.128 656.976 283.568C656.424 284.008 655.648 284.228 654.648 284.228C654.2 284.228 653.784 284.168 653.4 284.048C653.016 283.936 652.684 283.764 652.404 283.532C652.124 283.292 651.904 283 651.744 282.656C651.592 282.304 651.516 281.892 651.516 281.42H652.308ZM663.268 280.736C662.964 280.864 662.656 280.948 662.344 280.988C662.032 281.028 661.72 281.06 661.408 281.084C660.856 281.124 660.424 281.248 660.112 281.456C659.808 281.664 659.656 281.98 659.656 282.404C659.656 282.596 659.692 282.764 659.764 282.908C659.844 283.044 659.944 283.16 660.064 283.256C660.192 283.344 660.336 283.412 660.496 283.46C660.664 283.5 660.832 283.52 661 283.52C661.288 283.52 661.568 283.484 661.84 283.412C662.112 283.34 662.352 283.232 662.56 283.088C662.776 282.936 662.948 282.748 663.076 282.524C663.204 282.292 663.268 282.02 663.268 281.708V280.736ZM662.056 280.376C662.192 280.36 662.352 280.336 662.536 280.304C662.728 280.272 662.884 280.228 663.004 280.172C663.124 280.116 663.196 280.024 663.22 279.896C663.252 279.76 663.268 279.636 663.268 279.524C663.268 279.156 663.148 278.856 662.908 278.624C662.676 278.384 662.28 278.264 661.72 278.264C661.472 278.264 661.244 278.288 661.036 278.336C660.828 278.376 660.644 278.452 660.484 278.564C660.332 278.668 660.204 278.812 660.1 278.996C660.004 279.172 659.94 279.396 659.908 279.668H659.176C659.2 279.3 659.284 278.988 659.428 278.732C659.572 278.468 659.756 278.256 659.98 278.096C660.212 277.928 660.476 277.808 660.772 277.736C661.076 277.656 661.396 277.616 661.732 277.616C662.044 277.616 662.336 277.652 662.608 277.724C662.888 277.788 663.128 277.896 663.328 278.048C663.536 278.192 663.696 278.388 663.808 278.636C663.928 278.884 663.988 279.188 663.988 279.548V282.932C663.988 283.212 664.036 283.392 664.132 283.472C664.236 283.544 664.44 283.524 664.744 283.412V283.976C664.688 283.992 664.604 284.016 664.492 284.048C664.388 284.08 664.284 284.096 664.18 284.096C664.068 284.096 663.96 284.084 663.856 284.06C663.736 284.044 663.64 284.008 663.568 283.952C663.496 283.888 663.436 283.816 663.388 283.736C663.348 283.648 663.32 283.556 663.304 283.46C663.288 283.356 663.28 283.248 663.28 283.136C662.976 283.472 662.628 283.728 662.236 283.904C661.844 284.08 661.42 284.168 660.964 284.168C660.692 284.168 660.428 284.132 660.172 284.06C659.924 283.988 659.704 283.876 659.512 283.724C659.32 283.572 659.168 283.388 659.056 283.172C658.944 282.948 658.888 282.684 658.888 282.38C658.888 281.324 659.612 280.7 661.06 280.508L662.056 280.376ZM668.052 284.024C667.964 284.04 667.848 284.068 667.704 284.108C667.56 284.148 667.4 284.168 667.224 284.168C666.864 284.168 666.588 284.08 666.396 283.904C666.212 283.72 666.12 283.396 666.12 282.932V278.384H665.244V277.784H666.12V276.056H666.84V277.784H668.004V278.384H666.84V282.644C666.84 282.796 666.844 282.928 666.852 283.04C666.86 283.152 666.884 283.244 666.924 283.316C666.964 283.388 667.024 283.44 667.104 283.472C667.192 283.504 667.312 283.52 667.464 283.52C667.56 283.52 667.656 283.512 667.752 283.496C667.856 283.48 667.956 283.46 668.052 283.436V284.024Z" fill="black"/>
<path d="M325.308 281.42C325.34 281.804 325.424 282.132 325.56 282.404C325.704 282.668 325.884 282.884 326.1 283.052C326.324 283.22 326.58 283.344 326.868 283.424C327.156 283.496 327.464 283.532 327.792 283.532C328.176 283.532 328.508 283.484 328.788 283.388C329.068 283.292 329.296 283.164 329.472 283.004C329.648 282.836 329.776 282.644 329.856 282.428C329.944 282.212 329.988 281.984 329.988 281.744C329.988 281.408 329.912 281.136 329.76 280.928C329.608 280.72 329.408 280.552 329.16 280.424C328.92 280.288 328.64 280.18 328.32 280.1C328.008 280.02 327.684 279.944 327.348 279.872C327.02 279.792 326.696 279.7 326.376 279.596C326.064 279.492 325.784 279.352 325.536 279.176C325.296 279 325.1 278.776 324.948 278.504C324.796 278.224 324.72 277.872 324.72 277.448C324.72 277.152 324.78 276.864 324.9 276.584C325.028 276.304 325.212 276.056 325.452 275.84C325.7 275.624 326.008 275.452 326.376 275.324C326.744 275.196 327.168 275.132 327.648 275.132C328.136 275.132 328.56 275.2 328.92 275.336C329.288 275.472 329.592 275.66 329.832 275.9C330.072 276.132 330.252 276.404 330.372 276.716C330.492 277.028 330.552 277.36 330.552 277.712H329.772C329.772 277.384 329.712 277.1 329.592 276.86C329.48 276.62 329.324 276.424 329.124 276.272C328.924 276.12 328.696 276.008 328.44 275.936C328.184 275.864 327.92 275.828 327.648 275.828C327.232 275.828 326.88 275.888 326.592 276.008C326.312 276.12 326.088 276.268 325.92 276.452C325.752 276.636 325.636 276.84 325.572 277.064C325.508 277.288 325.496 277.512 325.536 277.736C325.584 278.016 325.696 278.24 325.872 278.408C326.048 278.576 326.264 278.716 326.52 278.828C326.776 278.932 327.056 279.02 327.36 279.092C327.672 279.156 327.988 279.228 328.308 279.308C328.628 279.38 328.936 279.468 329.232 279.572C329.536 279.676 329.804 279.816 330.036 279.992C330.268 280.168 330.452 280.396 330.588 280.676C330.732 280.948 330.804 281.292 330.804 281.708C330.804 282.508 330.528 283.128 329.976 283.568C329.424 284.008 328.648 284.228 327.648 284.228C327.2 284.228 326.784 284.168 326.4 284.048C326.016 283.936 325.684 283.764 325.404 283.532C325.124 283.292 324.904 283 324.744 282.656C324.592 282.304 324.516 281.892 324.516 281.42H325.308ZM336.412 277.784H337.132V284H336.412V283.136C336.316 283.248 336.208 283.364 336.088 283.484C335.968 283.604 335.828 283.716 335.668 283.82C335.516 283.916 335.336 283.996 335.128 284.06C334.92 284.132 334.68 284.168 334.408 284.168C333.992 284.168 333.644 284.112 333.364 284C333.084 283.88 332.856 283.716 332.68 283.508C332.512 283.3 332.388 283.06 332.308 282.788C332.236 282.508 332.2 282.204 332.2 281.876V277.784H332.92V281.864C332.92 282.4 333.044 282.812 333.292 283.1C333.54 283.38 333.948 283.52 334.516 283.52C334.812 283.52 335.076 283.464 335.308 283.352C335.548 283.232 335.748 283.068 335.908 282.86C336.068 282.652 336.192 282.404 336.28 282.116C336.368 281.828 336.412 281.512 336.412 281.168V277.784ZM339.588 284H338.868V277.784H339.588V278.648C339.876 278.344 340.172 278.096 340.476 277.904C340.788 277.712 341.16 277.616 341.592 277.616C341.976 277.616 342.332 277.684 342.66 277.82C342.988 277.948 343.264 278.176 343.488 278.504C343.64 278.728 343.728 278.96 343.752 279.2C343.784 279.432 343.8 279.676 343.8 279.932V284H343.08V279.944C343.08 279.384 342.956 278.964 342.708 278.684C342.46 278.404 342.048 278.264 341.472 278.264C341.248 278.264 341.044 278.3 340.86 278.372C340.676 278.436 340.508 278.524 340.356 278.636C340.212 278.748 340.088 278.876 339.984 279.02C339.88 279.164 339.8 279.316 339.744 279.476C339.672 279.676 339.628 279.868 339.612 280.052C339.596 280.236 339.588 280.436 339.588 280.652V284Z" fill="black"/>
<defs>
<filter id="filter0_d" x="12" y="104.525" width="649.924" height="147.47" filterUnits="userSpaceOnUse" color-interpolation-filters="sRGB">
<feFlood flood-opacity="0" result="BackgroundImageFix"/>
<feColorMatrix in="SourceAlpha" type="matrix" values="0 0 0 0 0 0 0 0 0 0 0 0 0 0 0 0 0 0 127 0"/>
<feOffset dy="4"/>
<feGaussianBlur stdDeviation="2"/>
<feColorMatrix type="matrix" values="0 0 0 0 0 0 0 0 0 0 0 0 0 0 0 0 0 0 0.1 0"/>
<feBlend mode="normal" in2="BackgroundImageFix" result="effect1_dropShadow"/>
<feBlend mode="normal" in="SourceGraphic" in2="effect1_dropShadow" result="shape"/>
</filter>
</defs>
</svg>
