<svg width="667" height="289" viewBox="0 0 667 289" fill="none" xmlns="http://www.w3.org/2000/svg">
<path d="M139.6 113H140.32V115.64H142.96V116.36H140.32V119H139.6V116.36H136.96V115.64H139.6V113ZM147.546 112.712H145.362V112.208C145.682 112.184 145.97 112.152 146.226 112.112C146.49 112.072 146.718 111.996 146.91 111.884C147.11 111.772 147.274 111.612 147.402 111.404C147.538 111.188 147.638 110.9 147.702 110.54H148.314V119H147.546V112.712ZM153.242 114.296C153.602 114.296 153.93 114.276 154.226 114.236C154.522 114.188 154.774 114.104 154.982 113.984C155.198 113.856 155.366 113.688 155.486 113.48C155.606 113.272 155.666 113.004 155.666 112.676C155.666 112.412 155.618 112.188 155.522 112.004C155.426 111.812 155.294 111.656 155.126 111.536C154.966 111.416 154.774 111.328 154.55 111.272C154.334 111.216 154.106 111.188 153.866 111.188C153.594 111.188 153.346 111.232 153.122 111.32C152.906 111.408 152.718 111.536 152.558 111.704C152.398 111.864 152.274 112.056 152.186 112.28C152.098 112.496 152.054 112.736 152.054 113H151.286C151.286 112.616 151.35 112.272 151.478 111.968C151.614 111.656 151.822 111.368 152.102 111.104C152.366 110.864 152.662 110.712 152.99 110.648C153.326 110.576 153.67 110.54 154.022 110.54C154.358 110.54 154.67 110.584 154.958 110.672C155.254 110.752 155.51 110.88 155.726 111.056C155.942 111.224 156.114 111.44 156.242 111.704C156.37 111.968 156.434 112.276 156.434 112.628C156.434 113.068 156.334 113.448 156.134 113.768C155.942 114.088 155.642 114.336 155.234 114.512C155.538 114.608 155.786 114.736 155.978 114.896C156.178 115.048 156.334 115.22 156.446 115.412C156.558 115.596 156.634 115.792 156.674 116C156.714 116.208 156.734 116.408 156.734 116.6C156.734 116.952 156.674 117.28 156.554 117.584C156.434 117.888 156.258 118.156 156.026 118.388C155.794 118.62 155.506 118.808 155.162 118.952C154.826 119.088 154.442 119.16 154.01 119.168C153.522 119.168 153.098 119.124 152.738 119.036C152.378 118.948 152.078 118.804 151.838 118.604C151.598 118.396 151.41 118.128 151.274 117.8C151.138 117.464 151.046 117.048 150.998 116.552H151.766C151.766 117.2 151.958 117.692 152.342 118.028C152.734 118.356 153.242 118.52 153.866 118.52C154.17 118.52 154.454 118.468 154.718 118.364C154.982 118.26 155.206 118.12 155.39 117.944C155.582 117.768 155.726 117.564 155.822 117.332C155.926 117.1 155.974 116.86 155.966 116.612C155.95 116.268 155.87 115.984 155.726 115.76C155.582 115.528 155.386 115.348 155.138 115.22C154.898 115.084 154.614 114.996 154.286 114.956C153.958 114.908 153.61 114.896 153.242 114.92V114.296Z" fill="black"/>
<path d="M0.936 284V275.36H2.184L5.016 282.98H5.04L7.824 275.36H9.06V284H8.244V276.296H8.22L5.388 284H4.62L1.776 276.296H1.752V284H0.936ZM13.3321 284.168C12.9321 284.16 12.5561 284.088 12.2041 283.952C11.8601 283.816 11.5561 283.612 11.2921 283.34C11.0361 283.068 10.8321 282.728 10.6801 282.32C10.5281 281.912 10.4521 281.436 10.4521 280.892C10.4521 280.436 10.5121 280.012 10.6321 279.62C10.7521 279.22 10.9321 278.872 11.1721 278.576C11.4121 278.28 11.7121 278.048 12.0721 277.88C12.4321 277.704 12.8521 277.616 13.3321 277.616C13.8201 277.616 14.2441 277.704 14.6041 277.88C14.9641 278.048 15.2641 278.28 15.5041 278.576C15.7441 278.864 15.9201 279.208 16.0321 279.608C16.1521 280.008 16.2121 280.436 16.2121 280.892C16.2121 281.388 16.1441 281.836 16.0081 282.236C15.8721 282.636 15.6761 282.98 15.4201 283.268C15.1721 283.556 14.8681 283.78 14.5081 283.94C14.1561 284.092 13.7641 284.168 13.3321 284.168ZM15.4441 280.892C15.4441 280.524 15.4041 280.18 15.3241 279.86C15.2441 279.54 15.1201 279.264 14.9521 279.032C14.7841 278.792 14.5681 278.604 14.3041 278.468C14.0401 278.332 13.7161 278.264 13.3321 278.264C12.9561 278.264 12.6321 278.34 12.3601 278.492C12.0961 278.636 11.8801 278.832 11.7121 279.08C11.5441 279.32 11.4201 279.6 11.3401 279.92C11.2601 280.232 11.2201 280.556 11.2201 280.892C11.2201 281.276 11.2641 281.632 11.3521 281.96C11.4481 282.28 11.5841 282.556 11.7601 282.788C11.9361 283.02 12.1561 283.2 12.4201 283.328C12.6841 283.456 12.9881 283.52 13.3321 283.52C13.7081 283.52 14.0281 283.448 14.2921 283.304C14.5641 283.152 14.7841 282.952 14.9521 282.704C15.1201 282.456 15.2441 282.176 15.3241 281.864C15.4041 281.552 15.4441 281.228 15.4441 280.892ZM18.2481 284H17.5281V277.784H18.2481V278.648C18.5361 278.344 18.8321 278.096 19.1361 277.904C19.4481 277.712 19.8201 277.616 20.2521 277.616C20.6361 277.616 20.9921 277.684 21.3201 277.82C21.6481 277.948 21.9241 278.176 22.1481 278.504C22.3001 278.728 22.3881 278.96 22.4121 279.2C22.4441 279.432 22.4601 279.676 22.4601 279.932V284H21.7401V279.944C21.7401 279.384 21.6161 278.964 21.3681 278.684C21.1201 278.404 20.7081 278.264 20.1321 278.264C19.9081 278.264 19.7041 278.3 19.5201 278.372C19.3361 278.436 19.1681 278.524 19.0161 278.636C18.8721 278.748 18.7481 278.876 18.6441 279.02C18.5401 279.164 18.4601 279.316 18.4041 279.476C18.3321 279.676 18.2881 279.868 18.2721 280.052C18.2561 280.236 18.2481 280.436 18.2481 280.652V284Z" fill="black"/>
<path d="M55.192 276.36H61.48V277.056H58.744V285H57.928V277.056H55.192V276.36ZM65.6424 278.784H66.3624V285H65.6424V284.136C65.5464 284.248 65.4384 284.364 65.3184 284.484C65.1984 284.604 65.0584 284.716 64.8984 284.82C64.7464 284.916 64.5664 284.996 64.3584 285.06C64.1504 285.132 63.9104 285.168 63.6384 285.168C63.2224 285.168 62.8744 285.112 62.5944 285C62.3144 284.88 62.0864 284.716 61.9104 284.508C61.7424 284.3 61.6184 284.06 61.5384 283.788C61.4664 283.508 61.4304 283.204 61.4304 282.876V278.784H62.1504V282.864C62.1504 283.4 62.2744 283.812 62.5224 284.1C62.7704 284.38 63.1784 284.52 63.7464 284.52C64.0424 284.52 64.3064 284.464 64.5384 284.352C64.7784 284.232 64.9784 284.068 65.1384 283.86C65.2984 283.652 65.4224 283.404 65.5104 283.116C65.5984 282.828 65.6424 282.512 65.6424 282.168V278.784ZM72.5984 281.46C72.5984 281.156 72.5544 280.872 72.4664 280.608C72.3864 280.336 72.2624 280.104 72.0944 279.912C71.9344 279.712 71.7304 279.556 71.4824 279.444C71.2344 279.324 70.9504 279.264 70.6304 279.264C70.3104 279.264 70.0264 279.324 69.7784 279.444C69.5384 279.564 69.3304 279.724 69.1544 279.924C68.9864 280.124 68.8504 280.356 68.7464 280.62C68.6424 280.884 68.5744 281.164 68.5424 281.46H72.5984ZM68.5424 282.06C68.5424 282.396 68.5864 282.716 68.6744 283.02C68.7624 283.316 68.8904 283.576 69.0584 283.8C69.2344 284.016 69.4544 284.192 69.7184 284.328C69.9824 284.456 70.2864 284.52 70.6304 284.52C71.1024 284.52 71.5064 284.396 71.8424 284.148C72.1784 283.9 72.4024 283.548 72.5144 283.092H73.3184C73.2304 283.388 73.1144 283.664 72.9704 283.92C72.8264 284.168 72.6464 284.388 72.4304 284.58C72.2144 284.764 71.9584 284.908 71.6624 285.012C71.3664 285.116 71.0224 285.168 70.6304 285.168C70.1344 285.168 69.7064 285.084 69.3464 284.916C68.9864 284.748 68.6904 284.52 68.4584 284.232C68.2264 283.936 68.0544 283.592 67.9424 283.2C67.8304 282.8 67.7744 282.372 67.7744 281.916C67.7744 281.46 67.8384 281.032 67.9664 280.632C68.1024 280.232 68.2904 279.884 68.5304 279.588C68.7784 279.284 69.0784 279.048 69.4304 278.88C69.7824 278.704 70.1824 278.616 70.6304 278.616C71.4864 278.616 72.1584 278.912 72.6464 279.504C73.1344 280.088 73.3744 280.94 73.3664 282.06H68.5424ZM75.1863 283.056C75.2983 283.592 75.4983 283.972 75.7863 284.196C76.0823 284.412 76.5023 284.52 77.0463 284.52C77.3103 284.52 77.5383 284.488 77.7303 284.424C77.9223 284.36 78.0783 284.276 78.1983 284.172C78.3263 284.06 78.4223 283.936 78.4863 283.8C78.5503 283.664 78.5823 283.52 78.5823 283.368C78.5823 283.064 78.4823 282.84 78.2823 282.696C78.0903 282.544 77.8463 282.428 77.5503 282.348C77.2543 282.26 76.9343 282.188 76.5903 282.132C76.2463 282.068 75.9263 281.976 75.6303 281.856C75.3343 281.736 75.0863 281.564 74.8863 281.34C74.6943 281.116 74.5983 280.8 74.5983 280.392C74.5983 279.872 74.7863 279.448 75.1623 279.12C75.5463 278.784 76.0863 278.616 76.7823 278.616C77.4543 278.616 77.9983 278.768 78.4143 279.072C78.8383 279.368 79.0943 279.868 79.1823 280.572H78.4503C78.3863 280.092 78.2023 279.756 77.8983 279.564C77.6023 279.364 77.2263 279.264 76.7703 279.264C76.3143 279.264 75.9663 279.364 75.7263 279.564C75.4863 279.756 75.3663 280.012 75.3663 280.332C75.3663 280.612 75.4623 280.828 75.6543 280.98C75.8543 281.124 76.1023 281.244 76.3983 281.34C76.6943 281.428 77.0143 281.508 77.3583 281.58C77.7023 281.652 78.0223 281.756 78.3183 281.892C78.6143 282.02 78.8583 282.196 79.0503 282.42C79.2503 282.644 79.3503 282.956 79.3503 283.356C79.3503 283.652 79.2863 283.916 79.1583 284.148C79.0303 284.372 78.8543 284.56 78.6303 284.712C78.4063 284.864 78.1383 284.976 77.8263 285.048C77.5223 285.128 77.1863 285.168 76.8183 285.168C76.4503 285.168 76.1223 285.112 75.8343 285C75.5543 284.896 75.3143 284.748 75.1143 284.556C74.9143 284.364 74.7583 284.14 74.6463 283.884C74.5343 283.628 74.4703 283.352 74.4543 283.056H75.1863Z" fill="black"/>
<path d="M118.752 283.848H118.776L120.66 276.36H121.5L119.232 285H118.332L116.328 277.368H116.304L114.3 285H113.4L111.168 276.36H111.984L113.844 283.848H113.868L115.872 276.36H116.784L118.752 283.848ZM126.817 281.46C126.817 281.156 126.773 280.872 126.685 280.608C126.605 280.336 126.481 280.104 126.313 279.912C126.153 279.712 125.949 279.556 125.701 279.444C125.453 279.324 125.169 279.264 124.849 279.264C124.529 279.264 124.245 279.324 123.997 279.444C123.757 279.564 123.549 279.724 123.373 279.924C123.205 280.124 123.069 280.356 122.965 280.62C122.861 280.884 122.793 281.164 122.761 281.46H126.817ZM122.761 282.06C122.761 282.396 122.805 282.716 122.893 283.02C122.981 283.316 123.109 283.576 123.277 283.8C123.453 284.016 123.673 284.192 123.937 284.328C124.201 284.456 124.505 284.52 124.849 284.52C125.321 284.52 125.725 284.396 126.061 284.148C126.397 283.9 126.621 283.548 126.733 283.092H127.537C127.449 283.388 127.333 283.664 127.189 283.92C127.045 284.168 126.865 284.388 126.649 284.58C126.433 284.764 126.177 284.908 125.881 285.012C125.585 285.116 125.241 285.168 124.849 285.168C124.353 285.168 123.925 285.084 123.565 284.916C123.205 284.748 122.909 284.52 122.677 284.232C122.445 283.936 122.273 283.592 122.161 283.2C122.049 282.8 121.993 282.372 121.993 281.916C121.993 281.46 122.057 281.032 122.185 280.632C122.321 280.232 122.509 279.884 122.749 279.588C122.997 279.284 123.297 279.048 123.649 278.88C124.001 278.704 124.401 278.616 124.849 278.616C125.705 278.616 126.377 278.912 126.865 279.504C127.353 280.088 127.593 280.94 127.585 282.06H122.761ZM133.785 281.868C133.785 281.516 133.737 281.184 133.641 280.872C133.545 280.552 133.405 280.276 133.221 280.044C133.045 279.804 132.825 279.616 132.561 279.48C132.305 279.336 132.013 279.264 131.685 279.264C131.309 279.264 130.985 279.34 130.713 279.492C130.441 279.636 130.217 279.836 130.041 280.092C129.865 280.348 129.737 280.648 129.657 280.992C129.577 281.328 129.545 281.692 129.561 282.084C129.561 282.476 129.613 282.824 129.717 283.128C129.829 283.424 129.981 283.676 130.173 283.884C130.365 284.092 130.589 284.252 130.845 284.364C131.101 284.468 131.381 284.52 131.685 284.52C132.021 284.52 132.321 284.452 132.585 284.316C132.849 284.18 133.069 283.996 133.245 283.764C133.421 283.524 133.553 283.244 133.641 282.924C133.737 282.596 133.785 282.244 133.785 281.868ZM133.785 276.36H134.505V285H133.785V283.908H133.761C133.657 284.116 133.521 284.3 133.353 284.46C133.193 284.612 133.013 284.74 132.813 284.844C132.621 284.948 132.421 285.028 132.213 285.084C132.005 285.14 131.801 285.168 131.601 285.168C131.097 285.168 130.669 285.084 130.317 284.916C129.965 284.748 129.673 284.52 129.441 284.232C129.217 283.936 129.053 283.588 128.949 283.188C128.845 282.788 128.793 282.36 128.793 281.904C128.793 281.472 128.849 281.056 128.961 280.656C129.073 280.256 129.241 279.908 129.465 279.612C129.697 279.308 129.985 279.068 130.329 278.892C130.681 278.708 131.093 278.616 131.565 278.616C132.005 278.616 132.425 278.716 132.825 278.916C133.233 279.108 133.553 279.396 133.785 279.78V276.36Z" fill="black"/>
<path d="M167.192 276.36H173.48V277.056H170.744V285H169.928V277.056H167.192V276.36ZM174.532 285V276.36H175.252V279.648C175.54 279.344 175.836 279.096 176.14 278.904C176.452 278.712 176.824 278.616 177.256 278.616C177.64 278.616 177.996 278.684 178.324 278.82C178.652 278.948 178.928 279.176 179.152 279.504C179.304 279.728 179.392 279.96 179.416 280.2C179.448 280.432 179.464 280.676 179.464 280.932V285H178.744V280.944C178.744 280.384 178.62 279.964 178.372 279.684C178.124 279.404 177.712 279.264 177.136 279.264C176.912 279.264 176.708 279.3 176.524 279.372C176.34 279.436 176.172 279.524 176.02 279.636C175.876 279.748 175.752 279.876 175.648 280.02C175.544 280.164 175.464 280.316 175.408 280.476C175.336 280.676 175.292 280.868 175.276 281.052C175.26 281.236 175.252 281.436 175.252 281.652V285H174.532ZM185.412 278.784H186.132V285H185.412V284.136C185.316 284.248 185.208 284.364 185.088 284.484C184.968 284.604 184.828 284.716 184.668 284.82C184.516 284.916 184.336 284.996 184.128 285.06C183.92 285.132 183.68 285.168 183.408 285.168C182.992 285.168 182.644 285.112 182.364 285C182.084 284.88 181.856 284.716 181.68 284.508C181.512 284.3 181.388 284.06 181.308 283.788C181.236 283.508 181.2 283.204 181.2 282.876V278.784H181.92V282.864C181.92 283.4 182.044 283.812 182.292 284.1C182.54 284.38 182.948 284.52 183.516 284.52C183.812 284.52 184.076 284.464 184.308 284.352C184.548 284.232 184.748 284.068 184.908 283.86C185.068 283.652 185.192 283.404 185.28 283.116C185.368 282.828 185.412 282.512 185.412 282.168V278.784ZM188.624 285H187.904V278.784H188.624V279.948H188.648C188.848 279.452 189.104 279.108 189.416 278.916C189.736 278.716 190.156 278.616 190.676 278.616V279.396C190.268 279.388 189.932 279.452 189.668 279.588C189.404 279.724 189.192 279.908 189.032 280.14C188.88 280.372 188.772 280.648 188.708 280.968C188.652 281.28 188.624 281.608 188.624 281.952V285ZM192.284 283.056C192.396 283.592 192.596 283.972 192.884 284.196C193.18 284.412 193.6 284.52 194.144 284.52C194.408 284.52 194.636 284.488 194.828 284.424C195.02 284.36 195.176 284.276 195.296 284.172C195.424 284.06 195.52 283.936 195.584 283.8C195.648 283.664 195.68 283.52 195.68 283.368C195.68 283.064 195.58 282.84 195.38 282.696C195.188 282.544 194.944 282.428 194.648 282.348C194.352 282.26 194.032 282.188 193.688 282.132C193.344 282.068 193.024 281.976 192.728 281.856C192.432 281.736 192.184 281.564 191.984 281.34C191.792 281.116 191.696 280.8 191.696 280.392C191.696 279.872 191.884 279.448 192.26 279.12C192.644 278.784 193.184 278.616 193.88 278.616C194.552 278.616 195.096 278.768 195.512 279.072C195.936 279.368 196.192 279.868 196.28 280.572H195.548C195.484 280.092 195.3 279.756 194.996 279.564C194.7 279.364 194.324 279.264 193.868 279.264C193.412 279.264 193.064 279.364 192.824 279.564C192.584 279.756 192.464 280.012 192.464 280.332C192.464 280.612 192.56 280.828 192.752 280.98C192.952 281.124 193.2 281.244 193.496 281.34C193.792 281.428 194.112 281.508 194.456 281.58C194.8 281.652 195.12 281.756 195.416 281.892C195.712 282.02 195.956 282.196 196.148 282.42C196.348 282.644 196.448 282.956 196.448 283.356C196.448 283.652 196.384 283.916 196.256 284.148C196.128 284.372 195.952 284.56 195.728 284.712C195.504 284.864 195.236 284.976 194.924 285.048C194.62 285.128 194.284 285.168 193.916 285.168C193.548 285.168 193.22 285.112 192.932 285C192.652 284.896 192.412 284.748 192.212 284.556C192.012 284.364 191.856 284.14 191.744 283.884C191.632 283.628 191.568 283.352 191.552 283.056H192.284Z" fill="black"/>
<path d="M376.936 285V276.36H378.184L381.016 283.98H381.04L383.824 276.36H385.06V285H384.244V277.296H384.22L381.388 285H380.62L377.776 277.296H377.752V285H376.936ZM389.332 285.168C388.932 285.16 388.556 285.088 388.204 284.952C387.86 284.816 387.556 284.612 387.292 284.34C387.036 284.068 386.832 283.728 386.68 283.32C386.528 282.912 386.452 282.436 386.452 281.892C386.452 281.436 386.512 281.012 386.632 280.62C386.752 280.22 386.932 279.872 387.172 279.576C387.412 279.28 387.712 279.048 388.072 278.88C388.432 278.704 388.852 278.616 389.332 278.616C389.82 278.616 390.244 278.704 390.604 278.88C390.964 279.048 391.264 279.28 391.504 279.576C391.744 279.864 391.92 280.208 392.032 280.608C392.152 281.008 392.212 281.436 392.212 281.892C392.212 282.388 392.144 282.836 392.008 283.236C391.872 283.636 391.676 283.98 391.42 284.268C391.172 284.556 390.868 284.78 390.508 284.94C390.156 285.092 389.764 285.168 389.332 285.168ZM391.444 281.892C391.444 281.524 391.404 281.18 391.324 280.86C391.244 280.54 391.12 280.264 390.952 280.032C390.784 279.792 390.568 279.604 390.304 279.468C390.04 279.332 389.716 279.264 389.332 279.264C388.956 279.264 388.632 279.34 388.36 279.492C388.096 279.636 387.88 279.832 387.712 280.08C387.544 280.32 387.42 280.6 387.34 280.92C387.26 281.232 387.22 281.556 387.22 281.892C387.22 282.276 387.264 282.632 387.352 282.96C387.448 283.28 387.584 283.556 387.76 283.788C387.936 284.02 388.156 284.2 388.42 284.328C388.684 284.456 388.988 284.52 389.332 284.52C389.708 284.52 390.028 284.448 390.292 284.304C390.564 284.152 390.784 283.952 390.952 283.704C391.12 283.456 391.244 283.176 391.324 282.864C391.404 282.552 391.444 282.228 391.444 281.892ZM394.248 285H393.528V278.784H394.248V279.648C394.536 279.344 394.832 279.096 395.136 278.904C395.448 278.712 395.82 278.616 396.252 278.616C396.636 278.616 396.992 278.684 397.32 278.82C397.648 278.948 397.924 279.176 398.148 279.504C398.3 279.728 398.388 279.96 398.412 280.2C398.444 280.432 398.46 280.676 398.46 280.932V285H397.74V280.944C397.74 280.384 397.616 279.964 397.368 279.684C397.12 279.404 396.708 279.264 396.132 279.264C395.908 279.264 395.704 279.3 395.52 279.372C395.336 279.436 395.168 279.524 395.016 279.636C394.872 279.748 394.748 279.876 394.644 280.02C394.54 280.164 394.46 280.316 394.404 280.476C394.332 280.676 394.288 280.868 394.272 281.052C394.256 281.236 394.248 281.436 394.248 281.652V285Z" fill="black"/>
<path d="M431.192 277.36H437.48V278.056H434.744V286H433.928V278.056H431.192V277.36ZM441.642 279.784H442.362V286H441.642V285.136C441.546 285.248 441.438 285.364 441.318 285.484C441.198 285.604 441.058 285.716 440.898 285.82C440.746 285.916 440.566 285.996 440.358 286.06C440.15 286.132 439.91 286.168 439.638 286.168C439.222 286.168 438.874 286.112 438.594 286C438.314 285.88 438.086 285.716 437.91 285.508C437.742 285.3 437.618 285.06 437.538 284.788C437.466 284.508 437.43 284.204 437.43 283.876V279.784H438.15V283.864C438.15 284.4 438.274 284.812 438.522 285.1C438.77 285.38 439.178 285.52 439.746 285.52C440.042 285.52 440.306 285.464 440.538 285.352C440.778 285.232 440.978 285.068 441.138 284.86C441.298 284.652 441.422 284.404 441.51 284.116C441.598 283.828 441.642 283.512 441.642 283.168V279.784ZM448.598 282.46C448.598 282.156 448.554 281.872 448.466 281.608C448.386 281.336 448.262 281.104 448.094 280.912C447.934 280.712 447.73 280.556 447.482 280.444C447.234 280.324 446.95 280.264 446.63 280.264C446.31 280.264 446.026 280.324 445.778 280.444C445.538 280.564 445.33 280.724 445.154 280.924C444.986 281.124 444.85 281.356 444.746 281.62C444.642 281.884 444.574 282.164 444.542 282.46H448.598ZM444.542 283.06C444.542 283.396 444.586 283.716 444.674 284.02C444.762 284.316 444.89 284.576 445.058 284.8C445.234 285.016 445.454 285.192 445.718 285.328C445.982 285.456 446.286 285.52 446.63 285.52C447.102 285.52 447.506 285.396 447.842 285.148C448.178 284.9 448.402 284.548 448.514 284.092H449.318C449.23 284.388 449.114 284.664 448.97 284.92C448.826 285.168 448.646 285.388 448.43 285.58C448.214 285.764 447.958 285.908 447.662 286.012C447.366 286.116 447.022 286.168 446.63 286.168C446.134 286.168 445.706 286.084 445.346 285.916C444.986 285.748 444.69 285.52 444.458 285.232C444.226 284.936 444.054 284.592 443.942 284.2C443.83 283.8 443.774 283.372 443.774 282.916C443.774 282.46 443.838 282.032 443.966 281.632C444.102 281.232 444.29 280.884 444.53 280.588C444.778 280.284 445.078 280.048 445.43 279.88C445.782 279.704 446.182 279.616 446.63 279.616C447.486 279.616 448.158 279.912 448.646 280.504C449.134 281.088 449.374 281.94 449.366 283.06H444.542ZM451.186 284.056C451.298 284.592 451.498 284.972 451.786 285.196C452.082 285.412 452.502 285.52 453.046 285.52C453.31 285.52 453.538 285.488 453.73 285.424C453.922 285.36 454.078 285.276 454.198 285.172C454.326 285.06 454.422 284.936 454.486 284.8C454.55 284.664 454.582 284.52 454.582 284.368C454.582 284.064 454.482 283.84 454.282 283.696C454.09 283.544 453.846 283.428 453.55 283.348C453.254 283.26 452.934 283.188 452.59 283.132C452.246 283.068 451.926 282.976 451.63 282.856C451.334 282.736 451.086 282.564 450.886 282.34C450.694 282.116 450.598 281.8 450.598 281.392C450.598 280.872 450.786 280.448 451.162 280.12C451.546 279.784 452.086 279.616 452.782 279.616C453.454 279.616 453.998 279.768 454.414 280.072C454.838 280.368 455.094 280.868 455.182 281.572H454.45C454.386 281.092 454.202 280.756 453.898 280.564C453.602 280.364 453.226 280.264 452.77 280.264C452.314 280.264 451.966 280.364 451.726 280.564C451.486 280.756 451.366 281.012 451.366 281.332C451.366 281.612 451.462 281.828 451.654 281.98C451.854 282.124 452.102 282.244 452.398 282.34C452.694 282.428 453.014 282.508 453.358 282.58C453.702 282.652 454.022 282.756 454.318 282.892C454.614 283.02 454.858 283.196 455.05 283.42C455.25 283.644 455.35 283.956 455.35 284.356C455.35 284.652 455.286 284.916 455.158 285.148C455.03 285.372 454.854 285.56 454.63 285.712C454.406 285.864 454.138 285.976 453.826 286.048C453.522 286.128 453.186 286.168 452.818 286.168C452.45 286.168 452.122 286.112 451.834 286C451.554 285.896 451.314 285.748 451.114 285.556C450.914 285.364 450.758 285.14 450.646 284.884C450.534 284.628 450.47 284.352 450.454 284.056H451.186Z" fill="black"/>
<path d="M494.752 284.848H494.776L496.66 277.36H497.5L495.232 286H494.332L492.328 278.368H492.304L490.3 286H489.4L487.168 277.36H487.984L489.844 284.848H489.868L491.872 277.36H492.784L494.752 284.848ZM502.817 282.46C502.817 282.156 502.773 281.872 502.685 281.608C502.605 281.336 502.481 281.104 502.313 280.912C502.153 280.712 501.949 280.556 501.701 280.444C501.453 280.324 501.169 280.264 500.849 280.264C500.529 280.264 500.245 280.324 499.997 280.444C499.757 280.564 499.549 280.724 499.373 280.924C499.205 281.124 499.069 281.356 498.965 281.62C498.861 281.884 498.793 282.164 498.761 282.46H502.817ZM498.761 283.06C498.761 283.396 498.805 283.716 498.893 284.02C498.981 284.316 499.109 284.576 499.277 284.8C499.453 285.016 499.673 285.192 499.937 285.328C500.201 285.456 500.505 285.52 500.849 285.52C501.321 285.52 501.725 285.396 502.061 285.148C502.397 284.9 502.621 284.548 502.733 284.092H503.537C503.449 284.388 503.333 284.664 503.189 284.92C503.045 285.168 502.865 285.388 502.649 285.58C502.433 285.764 502.177 285.908 501.881 286.012C501.585 286.116 501.241 286.168 500.849 286.168C500.353 286.168 499.925 286.084 499.565 285.916C499.205 285.748 498.909 285.52 498.677 285.232C498.445 284.936 498.273 284.592 498.161 284.2C498.049 283.8 497.993 283.372 497.993 282.916C497.993 282.46 498.057 282.032 498.185 281.632C498.321 281.232 498.509 280.884 498.749 280.588C498.997 280.284 499.297 280.048 499.649 279.88C500.001 279.704 500.401 279.616 500.849 279.616C501.705 279.616 502.377 279.912 502.865 280.504C503.353 281.088 503.593 281.94 503.585 283.06H498.761ZM509.785 282.868C509.785 282.516 509.737 282.184 509.641 281.872C509.545 281.552 509.405 281.276 509.221 281.044C509.045 280.804 508.825 280.616 508.561 280.48C508.305 280.336 508.013 280.264 507.685 280.264C507.309 280.264 506.985 280.34 506.713 280.492C506.441 280.636 506.217 280.836 506.041 281.092C505.865 281.348 505.737 281.648 505.657 281.992C505.577 282.328 505.545 282.692 505.561 283.084C505.561 283.476 505.613 283.824 505.717 284.128C505.829 284.424 505.981 284.676 506.173 284.884C506.365 285.092 506.589 285.252 506.845 285.364C507.101 285.468 507.381 285.52 507.685 285.52C508.021 285.52 508.321 285.452 508.585 285.316C508.849 285.18 509.069 284.996 509.245 284.764C509.421 284.524 509.553 284.244 509.641 283.924C509.737 283.596 509.785 283.244 509.785 282.868ZM509.785 277.36H510.505V286H509.785V284.908H509.761C509.657 285.116 509.521 285.3 509.353 285.46C509.193 285.612 509.013 285.74 508.813 285.844C508.621 285.948 508.421 286.028 508.213 286.084C508.005 286.14 507.801 286.168 507.601 286.168C507.097 286.168 506.669 286.084 506.317 285.916C505.965 285.748 505.673 285.52 505.441 285.232C505.217 284.936 505.053 284.588 504.949 284.188C504.845 283.788 504.793 283.36 504.793 282.904C504.793 282.472 504.849 282.056 504.961 281.656C505.073 281.256 505.241 280.908 505.465 280.612C505.697 280.308 505.985 280.068 506.329 279.892C506.681 279.708 507.093 279.616 507.565 279.616C508.005 279.616 508.425 279.716 508.825 279.916C509.233 280.108 509.553 280.396 509.785 280.78V277.36Z" fill="black"/>
<path d="M543.192 277.36H549.48V278.056H546.744V286H545.928V278.056H543.192V277.36ZM550.532 286V277.36H551.252V280.648C551.54 280.344 551.836 280.096 552.14 279.904C552.452 279.712 552.824 279.616 553.256 279.616C553.64 279.616 553.996 279.684 554.324 279.82C554.652 279.948 554.928 280.176 555.152 280.504C555.304 280.728 555.392 280.96 555.416 281.2C555.448 281.432 555.464 281.676 555.464 281.932V286H554.744V281.944C554.744 281.384 554.62 280.964 554.372 280.684C554.124 280.404 553.712 280.264 553.136 280.264C552.912 280.264 552.708 280.3 552.524 280.372C552.34 280.436 552.172 280.524 552.02 280.636C551.876 280.748 551.752 280.876 551.648 281.02C551.544 281.164 551.464 281.316 551.408 281.476C551.336 281.676 551.292 281.868 551.276 282.052C551.26 282.236 551.252 282.436 551.252 282.652V286H550.532ZM561.412 279.784H562.132V286H561.412V285.136C561.316 285.248 561.208 285.364 561.088 285.484C560.968 285.604 560.828 285.716 560.668 285.82C560.516 285.916 560.336 285.996 560.128 286.06C559.92 286.132 559.68 286.168 559.408 286.168C558.992 286.168 558.644 286.112 558.364 286C558.084 285.88 557.856 285.716 557.68 285.508C557.512 285.3 557.388 285.06 557.308 284.788C557.236 284.508 557.2 284.204 557.2 283.876V279.784H557.92V283.864C557.92 284.4 558.044 284.812 558.292 285.1C558.54 285.38 558.948 285.52 559.516 285.52C559.812 285.52 560.076 285.464 560.308 285.352C560.548 285.232 560.748 285.068 560.908 284.86C561.068 284.652 561.192 284.404 561.28 284.116C561.368 283.828 561.412 283.512 561.412 283.168V279.784ZM564.624 286H563.904V279.784H564.624V280.948H564.648C564.848 280.452 565.104 280.108 565.416 279.916C565.736 279.716 566.156 279.616 566.676 279.616V280.396C566.268 280.388 565.932 280.452 565.668 280.588C565.404 280.724 565.192 280.908 565.032 281.14C564.88 281.372 564.772 281.648 564.708 281.968C564.652 282.28 564.624 282.608 564.624 282.952V286ZM568.284 284.056C568.396 284.592 568.596 284.972 568.884 285.196C569.18 285.412 569.6 285.52 570.144 285.52C570.408 285.52 570.636 285.488 570.828 285.424C571.02 285.36 571.176 285.276 571.296 285.172C571.424 285.06 571.52 284.936 571.584 284.8C571.648 284.664 571.68 284.52 571.68 284.368C571.68 284.064 571.58 283.84 571.38 283.696C571.188 283.544 570.944 283.428 570.648 283.348C570.352 283.26 570.032 283.188 569.688 283.132C569.344 283.068 569.024 282.976 568.728 282.856C568.432 282.736 568.184 282.564 567.984 282.34C567.792 282.116 567.696 281.8 567.696 281.392C567.696 280.872 567.884 280.448 568.26 280.12C568.644 279.784 569.184 279.616 569.88 279.616C570.552 279.616 571.096 279.768 571.512 280.072C571.936 280.368 572.192 280.868 572.28 281.572H571.548C571.484 281.092 571.3 280.756 570.996 280.564C570.7 280.364 570.324 280.264 569.868 280.264C569.412 280.264 569.064 280.364 568.824 280.564C568.584 280.756 568.464 281.012 568.464 281.332C568.464 281.612 568.56 281.828 568.752 281.98C568.952 282.124 569.2 282.244 569.496 282.34C569.792 282.428 570.112 282.508 570.456 282.58C570.8 282.652 571.12 282.756 571.416 282.892C571.712 283.02 571.956 283.196 572.148 283.42C572.348 283.644 572.448 283.956 572.448 284.356C572.448 284.652 572.384 284.916 572.256 285.148C572.128 285.372 571.952 285.56 571.728 285.712C571.504 285.864 571.236 285.976 570.924 286.048C570.62 286.128 570.284 286.168 569.916 286.168C569.548 286.168 569.22 286.112 568.932 286C568.652 285.896 568.412 285.748 568.212 285.556C568.012 285.364 567.856 285.14 567.744 284.884C567.632 284.628 567.568 284.352 567.552 284.056H568.284Z" fill="black"/>
<path d="M228.888 285V276.36H234.456V277.056H229.704V280.176H234.024V280.872H229.704V285H228.888ZM236.288 285H235.568V278.784H236.288V279.948H236.312C236.512 279.452 236.768 279.108 237.08 278.916C237.4 278.716 237.82 278.616 238.34 278.616V279.396C237.932 279.388 237.596 279.452 237.332 279.588C237.068 279.724 236.856 279.908 236.696 280.14C236.544 280.372 236.436 280.648 236.372 280.968C236.316 281.28 236.288 281.608 236.288 281.952V285ZM239.425 285V278.784H240.145V285H239.425ZM239.389 277.428V276.36H240.181V277.428H239.389Z" fill="black"/>
<path d="M604.888 286V277.36H610.456V278.056H605.704V281.176H610.024V281.872H605.704V286H604.888ZM612.288 286H611.568V279.784H612.288V280.948H612.312C612.512 280.452 612.768 280.108 613.08 279.916C613.4 279.716 613.82 279.616 614.34 279.616V280.396C613.932 280.388 613.596 280.452 613.332 280.588C613.068 280.724 612.856 280.908 612.696 281.14C612.544 281.372 612.436 281.648 612.372 281.968C612.316 282.28 612.288 282.608 612.288 282.952V286ZM615.425 286V279.784H616.145V286H615.425ZM615.389 278.428V277.36H616.181V278.428H615.389Z" fill="black"/>
<path d="M274.308 282.42C274.34 282.804 274.424 283.132 274.56 283.404C274.704 283.668 274.884 283.884 275.1 284.052C275.324 284.22 275.58 284.344 275.868 284.424C276.156 284.496 276.464 284.532 276.792 284.532C277.176 284.532 277.508 284.484 277.788 284.388C278.068 284.292 278.296 284.164 278.472 284.004C278.648 283.836 278.776 283.644 278.856 283.428C278.944 283.212 278.988 282.984 278.988 282.744C278.988 282.408 278.912 282.136 278.76 281.928C278.608 281.72 278.408 281.552 278.16 281.424C277.92 281.288 277.64 281.18 277.32 281.1C277.008 281.02 276.684 280.944 276.348 280.872C276.02 280.792 275.696 280.7 275.376 280.596C275.064 280.492 274.784 280.352 274.536 280.176C274.296 280 274.1 279.776 273.948 279.504C273.796 279.224 273.72 278.872 273.72 278.448C273.72 278.152 273.78 277.864 273.9 277.584C274.028 277.304 274.212 277.056 274.452 276.84C274.7 276.624 275.008 276.452 275.376 276.324C275.744 276.196 276.168 276.132 276.648 276.132C277.136 276.132 277.56 276.2 277.92 276.336C278.288 276.472 278.592 276.66 278.832 276.9C279.072 277.132 279.252 277.404 279.372 277.716C279.492 278.028 279.552 278.36 279.552 278.712H278.772C278.772 278.384 278.712 278.1 278.592 277.86C278.48 277.62 278.324 277.424 278.124 277.272C277.924 277.12 277.696 277.008 277.44 276.936C277.184 276.864 276.92 276.828 276.648 276.828C276.232 276.828 275.88 276.888 275.592 277.008C275.312 277.12 275.088 277.268 274.92 277.452C274.752 277.636 274.636 277.84 274.572 278.064C274.508 278.288 274.496 278.512 274.536 278.736C274.584 279.016 274.696 279.24 274.872 279.408C275.048 279.576 275.264 279.716 275.52 279.828C275.776 279.932 276.056 280.02 276.36 280.092C276.672 280.156 276.988 280.228 277.308 280.308C277.628 280.38 277.936 280.468 278.232 280.572C278.536 280.676 278.804 280.816 279.036 280.992C279.268 281.168 279.452 281.396 279.588 281.676C279.732 281.948 279.804 282.292 279.804 282.708C279.804 283.508 279.528 284.128 278.976 284.568C278.424 285.008 277.648 285.228 276.648 285.228C276.2 285.228 275.784 285.168 275.4 285.048C275.016 284.936 274.684 284.764 274.404 284.532C274.124 284.292 273.904 284 273.744 283.656C273.592 283.304 273.516 282.892 273.516 282.42H274.308ZM285.268 281.736C284.964 281.864 284.656 281.948 284.344 281.988C284.032 282.028 283.72 282.06 283.408 282.084C282.856 282.124 282.424 282.248 282.112 282.456C281.808 282.664 281.656 282.98 281.656 283.404C281.656 283.596 281.692 283.764 281.764 283.908C281.844 284.044 281.944 284.16 282.064 284.256C282.192 284.344 282.336 284.412 282.496 284.46C282.664 284.5 282.832 284.52 283 284.52C283.288 284.52 283.568 284.484 283.84 284.412C284.112 284.34 284.352 284.232 284.56 284.088C284.776 283.936 284.948 283.748 285.076 283.524C285.204 283.292 285.268 283.02 285.268 282.708V281.736ZM284.056 281.376C284.192 281.36 284.352 281.336 284.536 281.304C284.728 281.272 284.884 281.228 285.004 281.172C285.124 281.116 285.196 281.024 285.22 280.896C285.252 280.76 285.268 280.636 285.268 280.524C285.268 280.156 285.148 279.856 284.908 279.624C284.676 279.384 284.28 279.264 283.72 279.264C283.472 279.264 283.244 279.288 283.036 279.336C282.828 279.376 282.644 279.452 282.484 279.564C282.332 279.668 282.204 279.812 282.1 279.996C282.004 280.172 281.94 280.396 281.908 280.668H281.176C281.2 280.3 281.284 279.988 281.428 279.732C281.572 279.468 281.756 279.256 281.98 279.096C282.212 278.928 282.476 278.808 282.772 278.736C283.076 278.656 283.396 278.616 283.732 278.616C284.044 278.616 284.336 278.652 284.608 278.724C284.888 278.788 285.128 278.896 285.328 279.048C285.536 279.192 285.696 279.388 285.808 279.636C285.928 279.884 285.988 280.188 285.988 280.548V283.932C285.988 284.212 286.036 284.392 286.132 284.472C286.236 284.544 286.44 284.524 286.744 284.412V284.976C286.688 284.992 286.604 285.016 286.492 285.048C286.388 285.08 286.284 285.096 286.18 285.096C286.068 285.096 285.96 285.084 285.856 285.06C285.736 285.044 285.64 285.008 285.568 284.952C285.496 284.888 285.436 284.816 285.388 284.736C285.348 284.648 285.32 284.556 285.304 284.46C285.288 284.356 285.28 284.248 285.28 284.136C284.976 284.472 284.628 284.728 284.236 284.904C283.844 285.08 283.42 285.168 282.964 285.168C282.692 285.168 282.428 285.132 282.172 285.06C281.924 284.988 281.704 284.876 281.512 284.724C281.32 284.572 281.168 284.388 281.056 284.172C280.944 283.948 280.888 283.684 280.888 283.38C280.888 282.324 281.612 281.7 283.06 281.508L284.056 281.376ZM290.052 285.024C289.964 285.04 289.848 285.068 289.704 285.108C289.56 285.148 289.4 285.168 289.224 285.168C288.864 285.168 288.588 285.08 288.396 284.904C288.212 284.72 288.12 284.396 288.12 283.932V279.384H287.244V278.784H288.12V277.056H288.84V278.784H290.004V279.384H288.84V283.644C288.84 283.796 288.844 283.928 288.852 284.04C288.86 284.152 288.884 284.244 288.924 284.316C288.964 284.388 289.024 284.44 289.104 284.472C289.192 284.504 289.312 284.52 289.464 284.52C289.56 284.52 289.656 284.512 289.752 284.496C289.856 284.48 289.956 284.46 290.052 284.436V285.024Z" fill="black"/>
<path d="M650.308 282.42C650.34 282.804 650.424 283.132 650.56 283.404C650.704 283.668 650.884 283.884 651.1 284.052C651.324 284.22 651.58 284.344 651.868 284.424C652.156 284.496 652.464 284.532 652.792 284.532C653.176 284.532 653.508 284.484 653.788 284.388C654.068 284.292 654.296 284.164 654.472 284.004C654.648 283.836 654.776 283.644 654.856 283.428C654.944 283.212 654.988 282.984 654.988 282.744C654.988 282.408 654.912 282.136 654.76 281.928C654.608 281.72 654.408 281.552 654.16 281.424C653.92 281.288 653.64 281.18 653.32 281.1C653.008 281.02 652.684 280.944 652.348 280.872C652.02 280.792 651.696 280.7 651.376 280.596C651.064 280.492 650.784 280.352 650.536 280.176C650.296 280 650.1 279.776 649.948 279.504C649.796 279.224 649.72 278.872 649.72 278.448C649.72 278.152 649.78 277.864 649.9 277.584C650.028 277.304 650.212 277.056 650.452 276.84C650.7 276.624 651.008 276.452 651.376 276.324C651.744 276.196 652.168 276.132 652.648 276.132C653.136 276.132 653.56 276.2 653.92 276.336C654.288 276.472 654.592 276.66 654.832 276.9C655.072 277.132 655.252 277.404 655.372 277.716C655.492 278.028 655.552 278.36 655.552 278.712H654.772C654.772 278.384 654.712 278.1 654.592 277.86C654.48 277.62 654.324 277.424 654.124 277.272C653.924 277.12 653.696 277.008 653.44 276.936C653.184 276.864 652.92 276.828 652.648 276.828C652.232 276.828 651.88 276.888 651.592 277.008C651.312 277.12 651.088 277.268 650.92 277.452C650.752 277.636 650.636 277.84 650.572 278.064C650.508 278.288 650.496 278.512 650.536 278.736C650.584 279.016 650.696 279.24 650.872 279.408C651.048 279.576 651.264 279.716 651.52 279.828C651.776 279.932 652.056 280.02 652.36 280.092C652.672 280.156 652.988 280.228 653.308 280.308C653.628 280.38 653.936 280.468 654.232 280.572C654.536 280.676 654.804 280.816 655.036 280.992C655.268 281.168 655.452 281.396 655.588 281.676C655.732 281.948 655.804 282.292 655.804 282.708C655.804 283.508 655.528 284.128 654.976 284.568C654.424 285.008 653.648 285.228 652.648 285.228C652.2 285.228 651.784 285.168 651.4 285.048C651.016 284.936 650.684 284.764 650.404 284.532C650.124 284.292 649.904 284 649.744 283.656C649.592 283.304 649.516 282.892 649.516 282.42H650.308ZM661.268 281.736C660.964 281.864 660.656 281.948 660.344 281.988C660.032 282.028 659.72 282.06 659.408 282.084C658.856 282.124 658.424 282.248 658.112 282.456C657.808 282.664 657.656 282.98 657.656 283.404C657.656 283.596 657.692 283.764 657.764 283.908C657.844 284.044 657.944 284.16 658.064 284.256C658.192 284.344 658.336 284.412 658.496 284.46C658.664 284.5 658.832 284.52 659 284.52C659.288 284.52 659.568 284.484 659.84 284.412C660.112 284.34 660.352 284.232 660.56 284.088C660.776 283.936 660.948 283.748 661.076 283.524C661.204 283.292 661.268 283.02 661.268 282.708V281.736ZM660.056 281.376C660.192 281.36 660.352 281.336 660.536 281.304C660.728 281.272 660.884 281.228 661.004 281.172C661.124 281.116 661.196 281.024 661.22 280.896C661.252 280.76 661.268 280.636 661.268 280.524C661.268 280.156 661.148 279.856 660.908 279.624C660.676 279.384 660.28 279.264 659.72 279.264C659.472 279.264 659.244 279.288 659.036 279.336C658.828 279.376 658.644 279.452 658.484 279.564C658.332 279.668 658.204 279.812 658.1 279.996C658.004 280.172 657.94 280.396 657.908 280.668H657.176C657.2 280.3 657.284 279.988 657.428 279.732C657.572 279.468 657.756 279.256 657.98 279.096C658.212 278.928 658.476 278.808 658.772 278.736C659.076 278.656 659.396 278.616 659.732 278.616C660.044 278.616 660.336 278.652 660.608 278.724C660.888 278.788 661.128 278.896 661.328 279.048C661.536 279.192 661.696 279.388 661.808 279.636C661.928 279.884 661.988 280.188 661.988 280.548V283.932C661.988 284.212 662.036 284.392 662.132 284.472C662.236 284.544 662.44 284.524 662.744 284.412V284.976C662.688 284.992 662.604 285.016 662.492 285.048C662.388 285.08 662.284 285.096 662.18 285.096C662.068 285.096 661.96 285.084 661.856 285.06C661.736 285.044 661.64 285.008 661.568 284.952C661.496 284.888 661.436 284.816 661.388 284.736C661.348 284.648 661.32 284.556 661.304 284.46C661.288 284.356 661.28 284.248 661.28 284.136C660.976 284.472 660.628 284.728 660.236 284.904C659.844 285.08 659.42 285.168 658.964 285.168C658.692 285.168 658.428 285.132 658.172 285.06C657.924 284.988 657.704 284.876 657.512 284.724C657.32 284.572 657.168 284.388 657.056 284.172C656.944 283.948 656.888 283.684 656.888 283.38C656.888 282.324 657.612 281.7 659.06 281.508L660.056 281.376ZM666.052 285.024C665.964 285.04 665.848 285.068 665.704 285.108C665.56 285.148 665.4 285.168 665.224 285.168C664.864 285.168 664.588 285.08 664.396 284.904C664.212 284.72 664.12 284.396 664.12 283.932V279.384H663.244V278.784H664.12V277.056H664.84V278.784H666.004V279.384H664.84V283.644C664.84 283.796 664.844 283.928 664.852 284.04C664.86 284.152 664.884 284.244 664.924 284.316C664.964 284.388 665.024 284.44 665.104 284.472C665.192 284.504 665.312 284.52 665.464 284.52C665.56 284.52 665.656 284.512 665.752 284.496C665.856 284.48 665.956 284.46 666.052 284.436V285.024Z" fill="black"/>
<path d="M323.308 282.42C323.34 282.804 323.424 283.132 323.56 283.404C323.704 283.668 323.884 283.884 324.1 284.052C324.324 284.22 324.58 284.344 324.868 284.424C325.156 284.496 325.464 284.532 325.792 284.532C326.176 284.532 326.508 284.484 326.788 284.388C327.068 284.292 327.296 284.164 327.472 284.004C327.648 283.836 327.776 283.644 327.856 283.428C327.944 283.212 327.988 282.984 327.988 282.744C327.988 282.408 327.912 282.136 327.76 281.928C327.608 281.72 327.408 281.552 327.16 281.424C326.92 281.288 326.64 281.18 326.32 281.1C326.008 281.02 325.684 280.944 325.348 280.872C325.02 280.792 324.696 280.7 324.376 280.596C324.064 280.492 323.784 280.352 323.536 280.176C323.296 280 323.1 279.776 322.948 279.504C322.796 279.224 322.72 278.872 322.72 278.448C322.72 278.152 322.78 277.864 322.9 277.584C323.028 277.304 323.212 277.056 323.452 276.84C323.7 276.624 324.008 276.452 324.376 276.324C324.744 276.196 325.168 276.132 325.648 276.132C326.136 276.132 326.56 276.2 326.92 276.336C327.288 276.472 327.592 276.66 327.832 276.9C328.072 277.132 328.252 277.404 328.372 277.716C328.492 278.028 328.552 278.36 328.552 278.712H327.772C327.772 278.384 327.712 278.1 327.592 277.86C327.48 277.62 327.324 277.424 327.124 277.272C326.924 277.12 326.696 277.008 326.44 276.936C326.184 276.864 325.92 276.828 325.648 276.828C325.232 276.828 324.88 276.888 324.592 277.008C324.312 277.12 324.088 277.268 323.92 277.452C323.752 277.636 323.636 277.84 323.572 278.064C323.508 278.288 323.496 278.512 323.536 278.736C323.584 279.016 323.696 279.24 323.872 279.408C324.048 279.576 324.264 279.716 324.52 279.828C324.776 279.932 325.056 280.02 325.36 280.092C325.672 280.156 325.988 280.228 326.308 280.308C326.628 280.38 326.936 280.468 327.232 280.572C327.536 280.676 327.804 280.816 328.036 280.992C328.268 281.168 328.452 281.396 328.588 281.676C328.732 281.948 328.804 282.292 328.804 282.708C328.804 283.508 328.528 284.128 327.976 284.568C327.424 285.008 326.648 285.228 325.648 285.228C325.2 285.228 324.784 285.168 324.4 285.048C324.016 284.936 323.684 284.764 323.404 284.532C323.124 284.292 322.904 284 322.744 283.656C322.592 283.304 322.516 282.892 322.516 282.42H323.308ZM334.412 278.784H335.132V285H334.412V284.136C334.316 284.248 334.208 284.364 334.088 284.484C333.968 284.604 333.828 284.716 333.668 284.82C333.516 284.916 333.336 284.996 333.128 285.06C332.92 285.132 332.68 285.168 332.408 285.168C331.992 285.168 331.644 285.112 331.364 285C331.084 284.88 330.856 284.716 330.68 284.508C330.512 284.3 330.388 284.06 330.308 283.788C330.236 283.508 330.2 283.204 330.2 282.876V278.784H330.92V282.864C330.92 283.4 331.044 283.812 331.292 284.1C331.54 284.38 331.948 284.52 332.516 284.52C332.812 284.52 333.076 284.464 333.308 284.352C333.548 284.232 333.748 284.068 333.908 283.86C334.068 283.652 334.192 283.404 334.28 283.116C334.368 282.828 334.412 282.512 334.412 282.168V278.784ZM337.588 285H336.868V278.784H337.588V279.648C337.876 279.344 338.172 279.096 338.476 278.904C338.788 278.712 339.16 278.616 339.592 278.616C339.976 278.616 340.332 278.684 340.66 278.82C340.988 278.948 341.264 279.176 341.488 279.504C341.64 279.728 341.728 279.96 341.752 280.2C341.784 280.432 341.8 280.676 341.8 280.932V285H341.08V280.944C341.08 280.384 340.956 279.964 340.708 279.684C340.46 279.404 340.048 279.264 339.472 279.264C339.248 279.264 339.044 279.3 338.86 279.372C338.676 279.436 338.508 279.524 338.356 279.636C338.212 279.748 338.088 279.876 337.984 280.02C337.88 280.164 337.8 280.316 337.744 280.476C337.672 280.676 337.628 280.868 337.612 281.052C337.596 281.236 337.588 281.436 337.588 281.652V285Z" fill="black"/>
<line x1="2.50194" y1="0.00210077" x2="0.24986" y2="268" stroke="black" stroke-width="0.5"/>
<line x1="662" y1="268.25" x2="0.000121323" y2="268.248" stroke="black" stroke-width="0.5"/>
<g opacity="0.2" filter="url(#filter0_d)">
<path d="M16 243.995L35.5 212.5L56 182.995L75.5 155.5L85.423 142.673C92.2907 133.795 101.839 127.369 112.649 124.35C115.876 123.449 119.181 122.861 122.52 122.594L129.589 122.028C138.036 121.353 146.506 122.998 154.085 126.788C158.99 129.24 163.422 132.541 167.176 136.538L171.1 140.715C175.022 144.889 178.475 149.48 181.399 154.405L186.5 162.995L193.5 172.5C199.702 179.352 207.746 184.273 216.67 186.676L217.205 186.82C224.954 188.906 233.092 189.097 240.931 187.376L241.654 187.218C246.855 186.076 251.855 184.158 256.485 181.527L261.577 178.633C268.065 174.947 273.404 169.534 277 162.995L283.5 155.495C289.106 147.251 296.355 140.253 304.792 134.941L305.5 134.495L311.834 133.088C319.425 131.401 327.351 132.107 334.523 135.11L336.685 136.015C342.108 138.285 346.739 142.104 350 146.995L355 159.995L361.129 179.103C362.695 183.986 365.182 188.524 368.456 192.472L376 201.569C378.851 205.006 383.084 206.995 387.549 206.995C391.667 206.995 395.605 205.302 398.438 202.313L403 197.5L418.5 176.495L426.5 163.995L427.858 161.732C431.455 155.737 438.802 153.039 445.458 155.178C447.125 155.714 448.701 156.556 450.068 157.65C454.824 161.454 461.459 161.856 466.639 158.651L468.5 157.5L479.5 146.5L492.5 133.995L502.901 125C508.281 120.347 514.194 116.348 520.516 113.087L526.5 110L532.393 107.527C538.685 104.887 545.565 103.964 552.33 104.855C558.037 105.606 563.504 107.626 568.328 110.767L573.083 113.863C579.312 117.92 584.782 123.039 589.242 128.986L603.5 148L621.5 179.5L639 209.5L657.5 241.5C658.33 242.164 657.861 243.502 656.798 243.502L16 243.995Z" fill="black"/>
</g>
<path d="M16.4996 243.5C16.4996 243.5 14.5842 242.211 58.4996 179C72.8837 158.296 82.233 146.426 88.8663 138.919C99.0492 127.395 114.719 122 130.098 122V122C150.131 122 168.626 132.744 178.549 150.148L185.081 161.604C191.473 172.814 201.823 181.334 214.032 185.511V185.511C226.195 189.672 239.548 189.254 251.403 184.282V184.282C259.663 180.819 266.899 175.298 272.423 168.247L287.5 149V149C298.293 135.209 317.312 127.566 333.477 134.3C340.25 137.121 346.23 140.856 349 146C351.757 151.12 355.008 161.043 358.17 171.727C364.715 193.845 385.337 218.805 400 201V201C407.357 192.066 418.713 175.308 426.867 162.12C431.738 154.242 443.052 152.024 450.095 158.04V158.04C455.664 162.796 463.97 162.407 469.07 157.151L492.5 133L506.108 122.113C510.358 118.713 514.942 115.754 519.79 113.28L528.114 109.033C533.955 106.054 540.418 104.5 546.975 104.5V104.5C556.683 104.5 566.084 107.904 573.542 114.119L579.173 118.812C581.72 120.934 584.092 123.258 586.265 125.76L590.47 130.602C596.475 137.518 601.794 145.001 606.351 152.946L658 243" stroke="black"/>
<path d="M16.224 2.92H23.56V3.732H20.368V13H19.416V3.732H16.224V2.92ZM26.1127 13.196C25.646 13.1867 25.2074 13.1027 24.7967 12.944C24.3954 12.7853 24.0407 12.5473 23.7327 12.23C23.434 11.9127 23.196 11.516 23.0187 11.04C22.8414 10.564 22.7527 10.0087 22.7527 9.374C22.7527 8.842 22.8227 8.34733 22.9627 7.89C23.1027 7.42333 23.3127 7.01733 23.5927 6.672C23.8727 6.32667 24.2227 6.056 24.6427 5.86C25.0627 5.65467 25.5527 5.552 26.1127 5.552C26.682 5.552 27.1767 5.65467 27.5967 5.86C28.0167 6.056 28.3667 6.32667 28.6467 6.672C28.9267 7.008 29.132 7.40933 29.2627 7.876C29.4027 8.34267 29.4727 8.842 29.4727 9.374C29.4727 9.95267 29.3934 10.4753 29.2347 10.942C29.076 11.4087 28.8474 11.81 28.5487 12.146C28.2594 12.482 27.9047 12.7433 27.4847 12.93C27.074 13.1073 26.6167 13.196 26.1127 13.196ZM28.5767 9.374C28.5767 8.94467 28.53 8.54333 28.4367 8.17C28.3434 7.79667 28.1987 7.47467 28.0027 7.204C27.8067 6.924 27.5547 6.70467 27.2467 6.546C26.9387 6.38733 26.5607 6.308 26.1127 6.308C25.674 6.308 25.296 6.39667 24.9787 6.574C24.6707 6.742 24.4187 6.97067 24.2227 7.26C24.0267 7.54 23.882 7.86667 23.7887 8.24C23.6954 8.604 23.6487 8.982 23.6487 9.374C23.6487 9.822 23.7 10.2373 23.8027 10.62C23.9147 10.9933 24.0734 11.3153 24.2787 11.586C24.484 11.8567 24.7407 12.0667 25.0487 12.216C25.3567 12.3653 25.7114 12.44 26.1127 12.44C26.5514 12.44 26.9247 12.356 27.2327 12.188C27.55 12.0107 27.8067 11.7773 28.0027 11.488C28.1987 11.1987 28.3434 10.872 28.4367 10.508C28.53 10.144 28.5767 9.766 28.5767 9.374ZM33.556 13.028C33.4533 13.0467 33.318 13.0793 33.15 13.126C32.982 13.1727 32.7953 13.196 32.59 13.196C32.17 13.196 31.848 13.0933 31.624 12.888C31.4093 12.6733 31.302 12.2953 31.302 11.754V6.448H30.28V5.748H31.302V3.732H32.142V5.748H33.5V6.448H32.142V11.418C32.142 11.5953 32.1467 11.7493 32.156 11.88C32.1653 12.0107 32.1933 12.118 32.24 12.202C32.2867 12.286 32.3567 12.3467 32.45 12.384C32.5527 12.4213 32.6927 12.44 32.87 12.44C32.982 12.44 33.094 12.4307 33.206 12.412C33.3273 12.3933 33.444 12.37 33.556 12.342V13.028ZM39.6505 9.192C39.2958 9.34133 38.9365 9.43933 38.5725 9.486C38.2085 9.53267 37.8445 9.57 37.4805 9.598C36.8365 9.64467 36.3325 9.78933 35.9685 10.032C35.6138 10.2747 35.4365 10.6433 35.4365 11.138C35.4365 11.362 35.4785 11.558 35.5625 11.726C35.6558 11.8847 35.7725 12.02 35.9125 12.132C36.0618 12.2347 36.2298 12.314 36.4165 12.37C36.6125 12.4167 36.8085 12.44 37.0045 12.44C37.3405 12.44 37.6672 12.398 37.9845 12.314C38.3018 12.23 38.5818 12.104 38.8245 11.936C39.0765 11.7587 39.2772 11.5393 39.4265 11.278C39.5758 11.0073 39.6505 10.69 39.6505 10.326V9.192ZM38.2365 8.772C38.3952 8.75333 38.5818 8.72533 38.7965 8.688C39.0205 8.65067 39.2025 8.59933 39.3425 8.534C39.4825 8.46867 39.5665 8.36133 39.5945 8.212C39.6318 8.05333 39.6505 7.90867 39.6505 7.778C39.6505 7.34867 39.5105 6.99867 39.2305 6.728C38.9598 6.448 38.4978 6.308 37.8445 6.308C37.5552 6.308 37.2892 6.336 37.0465 6.392C36.8038 6.43867 36.5892 6.52733 36.4025 6.658C36.2252 6.77933 36.0758 6.94733 35.9545 7.162C35.8425 7.36733 35.7678 7.62867 35.7305 7.946H34.8765C34.9045 7.51667 35.0025 7.15267 35.1705 6.854C35.3385 6.546 35.5532 6.29867 35.8145 6.112C36.0852 5.916 36.3932 5.776 36.7385 5.692C37.0932 5.59867 37.4665 5.552 37.8585 5.552C38.2225 5.552 38.5632 5.594 38.8805 5.678C39.2072 5.75267 39.4872 5.87867 39.7205 6.056C39.9632 6.224 40.1498 6.45267 40.2805 6.742C40.4205 7.03133 40.4905 7.386 40.4905 7.806V11.754C40.4905 12.0807 40.5465 12.2907 40.6585 12.384C40.7798 12.468 41.0178 12.4447 41.3725 12.314V12.972C41.3072 12.9907 41.2092 13.0187 41.0785 13.056C40.9572 13.0933 40.8358 13.112 40.7145 13.112C40.5838 13.112 40.4578 13.098 40.3365 13.07C40.1965 13.0513 40.0845 13.0093 40.0005 12.944C39.9165 12.8693 39.8465 12.7853 39.7905 12.692C39.7438 12.5893 39.7112 12.482 39.6925 12.37C39.6738 12.2487 39.6645 12.1227 39.6645 11.992C39.3098 12.384 38.9038 12.6827 38.4465 12.888C37.9892 13.0933 37.4945 13.196 36.9625 13.196C36.6452 13.196 36.3372 13.154 36.0385 13.07C35.7492 12.986 35.4925 12.8553 35.2685 12.678C35.0445 12.5007 34.8672 12.286 34.7365 12.034C34.6058 11.7727 34.5405 11.4647 34.5405 11.11C34.5405 9.878 35.3852 9.15 37.0745 8.926L38.2365 8.772ZM42.8098 13V2.92H43.6498V13H42.8098ZM50.2018 9.99C50.2391 10.438 50.3371 10.8207 50.4958 11.138C50.6638 11.446 50.8738 11.698 51.1258 11.894C51.3871 12.09 51.6858 12.2347 52.0218 12.328C52.3578 12.412 52.7171 12.454 53.0998 12.454C53.5478 12.454 53.9351 12.398 54.2618 12.286C54.5884 12.174 54.8544 12.0247 55.0598 11.838C55.2651 11.642 55.4144 11.418 55.5078 11.166C55.6104 10.914 55.6618 10.648 55.6618 10.368C55.6618 9.976 55.5731 9.65867 55.3958 9.416C55.2184 9.17333 54.9851 8.97733 54.6958 8.828C54.4158 8.66933 54.0891 8.54333 53.7158 8.45C53.3518 8.35667 52.9738 8.268 52.5818 8.184C52.1991 8.09067 51.8211 7.98333 51.4478 7.862C51.0838 7.74067 50.7571 7.57733 50.4678 7.372C50.1878 7.16667 49.9591 6.90533 49.7818 6.588C49.6044 6.26133 49.5158 5.85067 49.5158 5.356C49.5158 5.01067 49.5858 4.67467 49.7258 4.348C49.8751 4.02133 50.0898 3.732 50.3698 3.48C50.6591 3.228 51.0184 3.02733 51.4478 2.878C51.8771 2.72867 52.3718 2.654 52.9318 2.654C53.5011 2.654 53.9958 2.73333 54.4158 2.892C54.8451 3.05067 55.1998 3.27 55.4798 3.55C55.7598 3.82067 55.9698 4.138 56.1098 4.502C56.2498 4.866 56.3198 5.25333 56.3198 5.664H55.4098C55.4098 5.28133 55.3398 4.95 55.1998 4.67C55.0691 4.39 54.8871 4.16133 54.6538 3.984C54.4204 3.80667 54.1544 3.676 53.8558 3.592C53.5571 3.508 53.2491 3.466 52.9318 3.466C52.4464 3.466 52.0358 3.536 51.6998 3.676C51.3731 3.80667 51.1118 3.97933 50.9158 4.194C50.7198 4.40867 50.5844 4.64667 50.5098 4.908C50.4351 5.16933 50.4211 5.43067 50.4678 5.692C50.5238 6.01867 50.6544 6.28 50.8598 6.476C51.0651 6.672 51.3171 6.83533 51.6158 6.966C51.9144 7.08733 52.2411 7.19 52.5958 7.274C52.9598 7.34867 53.3284 7.43267 53.7018 7.526C54.0751 7.61 54.4344 7.71267 54.7798 7.834C55.1344 7.95533 55.4471 8.11867 55.7178 8.324C55.9884 8.52933 56.2031 8.79533 56.3618 9.122C56.5298 9.43933 56.6138 9.84067 56.6138 10.326C56.6138 11.2593 56.2918 11.9827 55.6478 12.496C55.0038 13.0093 54.0984 13.266 52.9318 13.266C52.4091 13.266 51.9238 13.196 51.4758 13.056C51.0278 12.9253 50.6404 12.7247 50.3138 12.454C49.9871 12.174 49.7304 11.8333 49.5438 11.432C49.3664 11.0213 49.2778 10.5407 49.2778 9.99H50.2018ZM63.1564 5.748H63.9964V13H63.1564V11.992C63.0444 12.1227 62.9184 12.258 62.7784 12.398C62.6384 12.538 62.475 12.6687 62.2884 12.79C62.111 12.902 61.901 12.9953 61.6584 13.07C61.4157 13.154 61.1357 13.196 60.8184 13.196C60.333 13.196 59.927 13.1307 59.6004 13C59.2737 12.86 59.0077 12.6687 58.8024 12.426C58.6064 12.1833 58.4617 11.9033 58.3684 11.586C58.2844 11.2593 58.2424 10.9047 58.2424 10.522V5.748H59.0824V10.508C59.0824 11.1333 59.227 11.614 59.5164 11.95C59.8057 12.2767 60.2817 12.44 60.9444 12.44C61.2897 12.44 61.5977 12.3747 61.8684 12.244C62.1484 12.104 62.3817 11.9127 62.5684 11.67C62.755 11.4273 62.8997 11.138 63.0024 10.802C63.105 10.466 63.1564 10.0973 63.1564 9.696V5.748ZM71.1597 8.03C71.0103 7.48867 70.7537 7.06867 70.3897 6.77C70.0257 6.462 69.5637 6.308 69.0037 6.308C68.5743 6.308 68.2057 6.39667 67.8977 6.574C67.5897 6.75133 67.3377 6.98933 67.1417 7.288C66.9457 7.57733 66.801 7.90867 66.7077 8.282C66.6143 8.646 66.5677 9.01467 66.5677 9.388C66.5677 9.77067 66.6097 10.144 66.6937 10.508C66.787 10.872 66.9317 11.1987 67.1277 11.488C67.3237 11.7773 67.5757 12.0107 67.8837 12.188C68.1917 12.356 68.565 12.44 69.0037 12.44C69.629 12.44 70.1283 12.2673 70.5017 11.922C70.8843 11.5767 71.127 11.1007 71.2297 10.494H72.1257C72.051 10.8953 71.9297 11.264 71.7617 11.6C71.603 11.9267 71.393 12.2113 71.1317 12.454C70.8797 12.6873 70.5763 12.8693 70.2217 13C69.867 13.1307 69.461 13.196 69.0037 13.196C68.425 13.196 67.9257 13.098 67.5057 12.902C67.0857 12.706 66.7403 12.44 66.4697 12.104C66.199 11.7587 65.9983 11.3527 65.8677 10.886C65.737 10.4193 65.6717 9.92 65.6717 9.388C65.6717 8.884 65.7417 8.40333 65.8817 7.946C66.031 7.47933 66.2457 7.06867 66.5257 6.714C66.8057 6.35933 67.151 6.07933 67.5617 5.874C67.9817 5.65933 68.4623 5.552 69.0037 5.552C69.8437 5.552 70.5203 5.75267 71.0337 6.154C71.5563 6.55533 71.883 7.18067 72.0137 8.03H71.1597ZM78.939 8.03C78.7896 7.48867 78.533 7.06867 78.169 6.77C77.805 6.462 77.343 6.308 76.783 6.308C76.3536 6.308 75.985 6.39667 75.677 6.574C75.369 6.75133 75.117 6.98933 74.921 7.288C74.725 7.57733 74.5803 7.90867 74.487 8.282C74.3936 8.646 74.347 9.01467 74.347 9.388C74.347 9.77067 74.389 10.144 74.473 10.508C74.5663 10.872 74.711 11.1987 74.907 11.488C75.103 11.7773 75.355 12.0107 75.663 12.188C75.971 12.356 76.3443 12.44 76.783 12.44C77.4083 12.44 77.9076 12.2673 78.281 11.922C78.6636 11.5767 78.9063 11.1007 79.009 10.494H79.905C79.8303 10.8953 79.709 11.264 79.541 11.6C79.3823 11.9267 79.1723 12.2113 78.911 12.454C78.659 12.6873 78.3556 12.8693 78.001 13C77.6463 13.1307 77.2403 13.196 76.783 13.196C76.2043 13.196 75.705 13.098 75.285 12.902C74.865 12.706 74.5196 12.44 74.249 12.104C73.9783 11.7587 73.7776 11.3527 73.647 10.886C73.5163 10.4193 73.451 9.92 73.451 9.388C73.451 8.884 73.521 8.40333 73.661 7.946C73.8103 7.47933 74.025 7.06867 74.305 6.714C74.585 6.35933 74.9303 6.07933 75.341 5.874C75.761 5.65933 76.2416 5.552 76.783 5.552C77.623 5.552 78.2996 5.75267 78.813 6.154C79.3356 6.55533 79.6623 7.18067 79.793 8.03H78.939ZM86.8303 8.87C86.8303 8.51533 86.7789 8.184 86.6763 7.876C86.5829 7.55867 86.4383 7.288 86.2423 7.064C86.0556 6.83067 85.8176 6.64867 85.5283 6.518C85.2389 6.378 84.9076 6.308 84.5343 6.308C84.1609 6.308 83.8296 6.378 83.5403 6.518C83.2603 6.658 83.0176 6.84467 82.8123 7.078C82.6163 7.31133 82.4576 7.582 82.3363 7.89C82.2149 8.198 82.1356 8.52467 82.0983 8.87H86.8303ZM82.0983 9.57C82.0983 9.962 82.1496 10.3353 82.2523 10.69C82.3549 11.0353 82.5043 11.3387 82.7003 11.6C82.9056 11.852 83.1623 12.0573 83.4703 12.216C83.7783 12.3653 84.1329 12.44 84.5343 12.44C85.0849 12.44 85.5563 12.2953 85.9483 12.006C86.3403 11.7167 86.6016 11.306 86.7323 10.774H87.6703C87.5676 11.1193 87.4323 11.4413 87.2643 11.74C87.0963 12.0293 86.8863 12.286 86.6343 12.51C86.3823 12.7247 86.0836 12.8927 85.7383 13.014C85.3929 13.1353 84.9916 13.196 84.5343 13.196C83.9556 13.196 83.4563 13.098 83.0363 12.902C82.6163 12.706 82.2709 12.44 82.0003 12.104C81.7296 11.7587 81.5289 11.3573 81.3983 10.9C81.2676 10.4333 81.2023 9.934 81.2023 9.402C81.2023 8.87 81.2769 8.37067 81.4263 7.904C81.5849 7.43733 81.8043 7.03133 82.0843 6.686C82.3736 6.33133 82.7236 6.056 83.1343 5.86C83.5449 5.65467 84.0116 5.552 84.5343 5.552C85.5329 5.552 86.3169 5.89733 86.8863 6.588C87.4556 7.26933 87.7356 8.26333 87.7263 9.57H82.0983ZM89.8496 10.732C89.9802 11.3573 90.2136 11.8007 90.5496 12.062C90.8949 12.314 91.3849 12.44 92.0196 12.44C92.3276 12.44 92.5936 12.4027 92.8176 12.328C93.0416 12.2533 93.2236 12.1553 93.3636 12.034C93.5129 11.9033 93.6249 11.7587 93.6996 11.6C93.7742 11.4413 93.8116 11.2733 93.8116 11.096C93.8116 10.7413 93.6949 10.48 93.4616 10.312C93.2376 10.1347 92.9529 9.99933 92.6076 9.906C92.2622 9.80333 91.8889 9.71933 91.4876 9.654C91.0862 9.57933 90.7129 9.472 90.3676 9.332C90.0222 9.192 89.7329 8.99133 89.4996 8.73C89.2756 8.46867 89.1636 8.1 89.1636 7.624C89.1636 7.01733 89.3829 6.52267 89.8216 6.14C90.2696 5.748 90.8996 5.552 91.7116 5.552C92.4956 5.552 93.1302 5.72933 93.6156 6.084C94.1102 6.42933 94.4089 7.01267 94.5116 7.834H93.6576C93.5829 7.274 93.3682 6.882 93.0136 6.658C92.6682 6.42467 92.2296 6.308 91.6976 6.308C91.1656 6.308 90.7596 6.42467 90.4796 6.658C90.1996 6.882 90.0596 7.18067 90.0596 7.554C90.0596 7.88067 90.1716 8.13267 90.3956 8.31C90.6289 8.478 90.9182 8.618 91.2636 8.73C91.6089 8.83267 91.9822 8.926 92.3836 9.01C92.7849 9.094 93.1582 9.21533 93.5036 9.374C93.8489 9.52333 94.1336 9.72867 94.3576 9.99C94.5909 10.2513 94.7076 10.6153 94.7076 11.082C94.7076 11.4273 94.6329 11.7353 94.4836 12.006C94.3342 12.2673 94.1289 12.4867 93.8676 12.664C93.6062 12.8413 93.2936 12.972 92.9296 13.056C92.5749 13.1493 92.1829 13.196 91.7536 13.196C91.3242 13.196 90.9416 13.1307 90.6056 13C90.2789 12.8787 89.9989 12.706 89.7656 12.482C89.5322 12.258 89.3502 11.9967 89.2196 11.698C89.0889 11.3993 89.0142 11.0773 88.9956 10.732H89.8496ZM96.8496 10.732C96.9802 11.3573 97.2136 11.8007 97.5496 12.062C97.8949 12.314 98.3849 12.44 99.0196 12.44C99.3276 12.44 99.5936 12.4027 99.8176 12.328C100.042 12.2533 100.224 12.1553 100.364 12.034C100.513 11.9033 100.625 11.7587 100.7 11.6C100.774 11.4413 100.812 11.2733 100.812 11.096C100.812 10.7413 100.695 10.48 100.462 10.312C100.238 10.1347 99.9529 9.99933 99.6076 9.906C99.2622 9.80333 98.8889 9.71933 98.4876 9.654C98.0862 9.57933 97.7129 9.472 97.3676 9.332C97.0222 9.192 96.7329 8.99133 96.4996 8.73C96.2756 8.46867 96.1636 8.1 96.1636 7.624C96.1636 7.01733 96.3829 6.52267 96.8216 6.14C97.2696 5.748 97.8996 5.552 98.7116 5.552C99.4956 5.552 100.13 5.72933 100.616 6.084C101.11 6.42933 101.409 7.01267 101.512 7.834H100.658C100.583 7.274 100.368 6.882 100.014 6.658C99.6682 6.42467 99.2296 6.308 98.6976 6.308C98.1656 6.308 97.7596 6.42467 97.4796 6.658C97.1996 6.882 97.0596 7.18067 97.0596 7.554C97.0596 7.88067 97.1716 8.13267 97.3956 8.31C97.6289 8.478 97.9182 8.618 98.2636 8.73C98.6089 8.83267 98.9822 8.926 99.3836 9.01C99.7849 9.094 100.158 9.21533 100.504 9.374C100.849 9.52333 101.134 9.72867 101.358 9.99C101.591 10.2513 101.708 10.6153 101.708 11.082C101.708 11.4273 101.633 11.7353 101.484 12.006C101.334 12.2673 101.129 12.4867 100.868 12.664C100.606 12.8413 100.294 12.972 99.9296 13.056C99.5749 13.1493 99.1829 13.196 98.7536 13.196C98.3242 13.196 97.9416 13.1307 97.6056 13C97.2789 12.8787 96.9989 12.706 96.7656 12.482C96.5322 12.258 96.3502 11.9967 96.2196 11.698C96.0889 11.3993 96.0142 11.0773 95.9956 10.732H96.8496ZM108.61 8.87C108.61 8.51533 108.558 8.184 108.456 7.876C108.362 7.55867 108.218 7.288 108.022 7.064C107.835 6.83067 107.597 6.64867 107.308 6.518C107.018 6.378 106.687 6.308 106.314 6.308C105.94 6.308 105.609 6.378 105.32 6.518C105.04 6.658 104.797 6.84467 104.592 7.078C104.396 7.31133 104.237 7.582 104.116 7.89C103.994 8.198 103.915 8.52467 103.878 8.87H108.61ZM103.878 9.57C103.878 9.962 103.929 10.3353 104.032 10.69C104.134 11.0353 104.284 11.3387 104.48 11.6C104.685 11.852 104.942 12.0573 105.25 12.216C105.558 12.3653 105.912 12.44 106.314 12.44C106.864 12.44 107.336 12.2953 107.728 12.006C108.12 11.7167 108.381 11.306 108.512 10.774H109.45C109.347 11.1193 109.212 11.4413 109.044 11.74C108.876 12.0293 108.666 12.286 108.414 12.51C108.162 12.7247 107.863 12.8927 107.518 13.014C107.172 13.1353 106.771 13.196 106.314 13.196C105.735 13.196 105.236 13.098 104.816 12.902C104.396 12.706 104.05 12.44 103.78 12.104C103.509 11.7587 103.308 11.3573 103.178 10.9C103.047 10.4333 102.982 9.934 102.982 9.402C102.982 8.87 103.056 8.37067 103.206 7.904C103.364 7.43733 103.584 7.03133 103.864 6.686C104.153 6.33133 104.503 6.056 104.914 5.86C105.324 5.65467 105.791 5.552 106.314 5.552C107.312 5.552 108.096 5.89733 108.666 6.588C109.235 7.26933 109.515 8.26333 109.506 9.57H103.878ZM111.629 10.732C111.76 11.3573 111.993 11.8007 112.329 12.062C112.674 12.314 113.164 12.44 113.799 12.44C114.107 12.44 114.373 12.4027 114.597 12.328C114.821 12.2533 115.003 12.1553 115.143 12.034C115.292 11.9033 115.404 11.7587 115.479 11.6C115.554 11.4413 115.591 11.2733 115.591 11.096C115.591 10.7413 115.474 10.48 115.241 10.312C115.017 10.1347 114.732 9.99933 114.387 9.906C114.042 9.80333 113.668 9.71933 113.267 9.654C112.866 9.57933 112.492 9.472 112.147 9.332C111.802 9.192 111.512 8.99133 111.279 8.73C111.055 8.46867 110.943 8.1 110.943 7.624C110.943 7.01733 111.162 6.52267 111.601 6.14C112.049 5.748 112.679 5.552 113.491 5.552C114.275 5.552 114.91 5.72933 115.395 6.084C115.89 6.42933 116.188 7.01267 116.291 7.834H115.437C115.362 7.274 115.148 6.882 114.793 6.658C114.448 6.42467 114.009 6.308 113.477 6.308C112.945 6.308 112.539 6.42467 112.259 6.658C111.979 6.882 111.839 7.18067 111.839 7.554C111.839 7.88067 111.951 8.13267 112.175 8.31C112.408 8.478 112.698 8.618 113.043 8.73C113.388 8.83267 113.762 8.926 114.163 9.01C114.564 9.094 114.938 9.21533 115.283 9.374C115.628 9.52333 115.913 9.72867 116.137 9.99C116.37 10.2513 116.487 10.6153 116.487 11.082C116.487 11.4273 116.412 11.7353 116.263 12.006C116.114 12.2673 115.908 12.4867 115.647 12.664C115.386 12.8413 115.073 12.972 114.709 13.056C114.354 13.1493 113.962 13.196 113.533 13.196C113.104 13.196 112.721 13.1307 112.385 13C112.058 12.8787 111.778 12.706 111.545 12.482C111.312 12.258 111.13 11.9967 110.999 11.698C110.868 11.3993 110.794 11.0773 110.775 10.732H111.629ZM117.873 14.26H117.089L120.379 2.654H121.163L117.873 14.26ZM122.161 13V2.92H125.605C125.885 2.92 126.161 2.92933 126.431 2.948C126.702 2.95733 126.968 2.99 127.229 3.046C127.491 3.09267 127.743 3.16733 127.985 3.27C128.237 3.37267 128.48 3.508 128.713 3.676C129.049 3.91867 129.325 4.21733 129.539 4.572C129.754 4.91733 129.922 5.286 130.043 5.678C130.174 6.06067 130.263 6.45267 130.309 6.854C130.365 7.246 130.393 7.61 130.393 7.946C130.393 8.282 130.37 8.62267 130.323 8.968C130.286 9.31333 130.221 9.654 130.127 9.99C130.034 10.3167 129.908 10.634 129.749 10.942C129.6 11.2407 129.409 11.516 129.175 11.768C128.942 12.0293 128.685 12.2393 128.405 12.398C128.135 12.5567 127.845 12.6827 127.537 12.776C127.239 12.86 126.926 12.9207 126.599 12.958C126.273 12.986 125.941 13 125.605 13H122.161ZM123.113 12.188H125.395C125.825 12.188 126.226 12.1647 126.599 12.118C126.982 12.062 127.369 11.9313 127.761 11.726C128.097 11.558 128.373 11.3293 128.587 11.04C128.802 10.7507 128.97 10.438 129.091 10.102C129.222 9.75667 129.311 9.39733 129.357 9.024C129.413 8.65067 129.441 8.29133 129.441 7.946C129.441 7.582 129.418 7.21333 129.371 6.84C129.325 6.45733 129.236 6.098 129.105 5.762C128.975 5.41667 128.797 5.104 128.573 4.824C128.349 4.53467 128.06 4.29667 127.705 4.11C127.407 3.95133 127.052 3.84867 126.641 3.802C126.231 3.75533 125.815 3.732 125.395 3.732H123.113V12.188ZM137.389 8.87C137.389 8.51533 137.338 8.184 137.235 7.876C137.142 7.55867 136.997 7.288 136.801 7.064C136.614 6.83067 136.376 6.64867 136.087 6.518C135.798 6.378 135.466 6.308 135.093 6.308C134.72 6.308 134.388 6.378 134.099 6.518C133.819 6.658 133.576 6.84467 133.371 7.078C133.175 7.31133 133.016 7.582 132.895 7.89C132.774 8.198 132.694 8.52467 132.657 8.87H137.389ZM132.657 9.57C132.657 9.962 132.708 10.3353 132.811 10.69C132.914 11.0353 133.063 11.3387 133.259 11.6C133.464 11.852 133.721 12.0573 134.029 12.216C134.337 12.3653 134.692 12.44 135.093 12.44C135.644 12.44 136.115 12.2953 136.507 12.006C136.899 11.7167 137.16 11.306 137.291 10.774H138.229C138.126 11.1193 137.991 11.4413 137.823 11.74C137.655 12.0293 137.445 12.286 137.193 12.51C136.941 12.7247 136.642 12.8927 136.297 13.014C135.952 13.1353 135.55 13.196 135.093 13.196C134.514 13.196 134.015 13.098 133.595 12.902C133.175 12.706 132.83 12.44 132.559 12.104C132.288 11.7587 132.088 11.3573 131.957 10.9C131.826 10.4333 131.761 9.934 131.761 9.402C131.761 8.87 131.836 8.37067 131.985 7.904C132.144 7.43733 132.363 7.03133 132.643 6.686C132.932 6.33133 133.282 6.056 133.693 5.86C134.104 5.65467 134.57 5.552 135.093 5.552C136.092 5.552 136.876 5.89733 137.445 6.588C138.014 7.26933 138.294 8.26333 138.285 9.57H132.657ZM145.056 8.03C144.907 7.48867 144.65 7.06867 144.286 6.77C143.922 6.462 143.46 6.308 142.9 6.308C142.471 6.308 142.102 6.39667 141.794 6.574C141.486 6.75133 141.234 6.98933 141.038 7.288C140.842 7.57733 140.697 7.90867 140.604 8.282C140.511 8.646 140.464 9.01467 140.464 9.388C140.464 9.77067 140.506 10.144 140.59 10.508C140.683 10.872 140.828 11.1987 141.024 11.488C141.22 11.7773 141.472 12.0107 141.78 12.188C142.088 12.356 142.461 12.44 142.9 12.44C143.525 12.44 144.025 12.2673 144.398 11.922C144.781 11.5767 145.023 11.1007 145.126 10.494H146.022C145.947 10.8953 145.826 11.264 145.658 11.6C145.499 11.9267 145.289 12.2113 145.028 12.454C144.776 12.6873 144.473 12.8693 144.118 13C143.763 13.1307 143.357 13.196 142.9 13.196C142.321 13.196 141.822 13.098 141.402 12.902C140.982 12.706 140.637 12.44 140.366 12.104C140.095 11.7587 139.895 11.3527 139.764 10.886C139.633 10.4193 139.568 9.92 139.568 9.388C139.568 8.884 139.638 8.40333 139.778 7.946C139.927 7.47933 140.142 7.06867 140.422 6.714C140.702 6.35933 141.047 6.07933 141.458 5.874C141.878 5.65933 142.359 5.552 142.9 5.552C143.74 5.552 144.417 5.75267 144.93 6.154C145.453 6.55533 145.779 7.18067 145.91 8.03H145.056ZM147.823 13V2.92H148.663V13H147.823ZM150.681 13V5.748H151.521V13H150.681ZM150.639 4.166V2.92H151.563V4.166H150.639ZM154.498 13H153.658V5.748H154.498V6.756C154.834 6.40133 155.18 6.112 155.534 5.888C155.898 5.664 156.332 5.552 156.836 5.552C157.284 5.552 157.7 5.63133 158.082 5.79C158.465 5.93933 158.787 6.20533 159.048 6.588C159.226 6.84933 159.328 7.12 159.356 7.4C159.394 7.67067 159.412 7.95533 159.412 8.254V13H158.572V8.268C158.572 7.61467 158.428 7.12467 158.138 6.798C157.849 6.47133 157.368 6.308 156.696 6.308C156.435 6.308 156.197 6.35 155.982 6.434C155.768 6.50867 155.572 6.61133 155.394 6.742C155.226 6.87267 155.082 7.022 154.96 7.19C154.839 7.358 154.746 7.53533 154.68 7.722C154.596 7.95533 154.545 8.17933 154.526 8.394C154.508 8.60867 154.498 8.842 154.498 9.094V13ZM166.688 8.87C166.688 8.51533 166.636 8.184 166.534 7.876C166.44 7.55867 166.296 7.288 166.1 7.064C165.913 6.83067 165.675 6.64867 165.386 6.518C165.096 6.378 164.765 6.308 164.392 6.308C164.018 6.308 163.687 6.378 163.398 6.518C163.118 6.658 162.875 6.84467 162.67 7.078C162.474 7.31133 162.315 7.582 162.194 7.89C162.072 8.198 161.993 8.52467 161.956 8.87H166.688ZM161.956 9.57C161.956 9.962 162.007 10.3353 162.11 10.69C162.212 11.0353 162.362 11.3387 162.558 11.6C162.763 11.852 163.02 12.0573 163.328 12.216C163.636 12.3653 163.99 12.44 164.392 12.44C164.942 12.44 165.414 12.2953 165.806 12.006C166.198 11.7167 166.459 11.306 166.59 10.774H167.528C167.425 11.1193 167.29 11.4413 167.122 11.74C166.954 12.0293 166.744 12.286 166.492 12.51C166.24 12.7247 165.941 12.8927 165.596 13.014C165.25 13.1353 164.849 13.196 164.392 13.196C163.813 13.196 163.314 13.098 162.894 12.902C162.474 12.706 162.128 12.44 161.858 12.104C161.587 11.7587 161.386 11.3573 161.256 10.9C161.125 10.4333 161.06 9.934 161.06 9.402C161.06 8.87 161.134 8.37067 161.284 7.904C161.442 7.43733 161.662 7.03133 161.942 6.686C162.231 6.33133 162.581 6.056 162.992 5.86C163.402 5.65467 163.869 5.552 164.392 5.552C165.39 5.552 166.174 5.89733 166.744 6.588C167.313 7.26933 167.593 8.26333 167.584 9.57H161.956ZM169.707 10.732C169.838 11.3573 170.071 11.8007 170.407 12.062C170.752 12.314 171.242 12.44 171.877 12.44C172.185 12.44 172.451 12.4027 172.675 12.328C172.899 12.2533 173.081 12.1553 173.221 12.034C173.37 11.9033 173.482 11.7587 173.557 11.6C173.632 11.4413 173.669 11.2733 173.669 11.096C173.669 10.7413 173.552 10.48 173.319 10.312C173.095 10.1347 172.81 9.99933 172.465 9.906C172.12 9.80333 171.746 9.71933 171.345 9.654C170.944 9.57933 170.57 9.472 170.225 9.332C169.88 9.192 169.59 8.99133 169.357 8.73C169.133 8.46867 169.021 8.1 169.021 7.624C169.021 7.01733 169.24 6.52267 169.679 6.14C170.127 5.748 170.757 5.552 171.569 5.552C172.353 5.552 172.988 5.72933 173.473 6.084C173.968 6.42933 174.266 7.01267 174.369 7.834H173.515C173.44 7.274 173.226 6.882 172.871 6.658C172.526 6.42467 172.087 6.308 171.555 6.308C171.023 6.308 170.617 6.42467 170.337 6.658C170.057 6.882 169.917 7.18067 169.917 7.554C169.917 7.88067 170.029 8.13267 170.253 8.31C170.486 8.478 170.776 8.618 171.121 8.73C171.466 8.83267 171.84 8.926 172.241 9.01C172.642 9.094 173.016 9.21533 173.361 9.374C173.706 9.52333 173.991 9.72867 174.215 9.99C174.448 10.2513 174.565 10.6153 174.565 11.082C174.565 11.4273 174.49 11.7353 174.341 12.006C174.192 12.2673 173.986 12.4867 173.725 12.664C173.464 12.8413 173.151 12.972 172.787 13.056C172.432 13.1493 172.04 13.196 171.611 13.196C171.182 13.196 170.799 13.1307 170.463 13C170.136 12.8787 169.856 12.706 169.623 12.482C169.39 12.258 169.208 11.9967 169.077 11.698C168.946 11.3993 168.872 11.0773 168.853 10.732H169.707Z" fill="black"/>
<circle cx="132.5" cy="122.5" r="3.5" fill="black"/>
<defs>
<filter id="filter0_d" x="12" y="104.525" width="649.924" height="147.47" filterUnits="userSpaceOnUse" color-interpolation-filters="sRGB">
<feFlood flood-opacity="0" result="BackgroundImageFix"/>
<feColorMatrix in="SourceAlpha" type="matrix" values="0 0 0 0 0 0 0 0 0 0 0 0 0 0 0 0 0 0 127 0"/>
<feOffset dy="4"/>
<feGaussianBlur stdDeviation="2"/>
<feColorMatrix type="matrix" values="0 0 0 0 0 0 0 0 0 0 0 0 0 0 0 0 0 0 0.1 0"/>
<feBlend mode="normal" in2="BackgroundImageFix" result="effect1_dropShadow"/>
<feBlend mode="normal" in="SourceGraphic" in2="effect1_dropShadow" result="shape"/>
</filter>
</defs>
</svg>
