<svg width="370" height="292" viewBox="0 0 370 292" fill="none" xmlns="http://www.w3.org/2000/svg">
<g clip-path="url(#clip0)">
<rect width="370" height="292" fill="white"/>
<path d="M1567.48 1149.62L243.463 1061.01L1384.06 -164.621L1567.48 1149.62Z" fill="url(#paint0_linear)"/>
<path d="M-194.622 1445.81L106.309 -660.396L1913.49 1158.57L-194.622 1445.81Z" fill="url(#paint1_linear)"/>
<path d="M-95.6216 -280.483L1639.77 23.0472L24.8474 1477.13L-95.6216 -280.483Z" fill="url(#paint2_linear)"/>
<path d="M1447.38 -7.79683L1454.81 1216.54L223.084 -20.4986L1447.38 -7.79683Z" fill="url(#paint3_linear)"/>
<g filter="url(#filter0_f)">
<ellipse cx="720" cy="324.5" rx="728" ry="699.5" fill="#3E5204"/>
<ellipse cx="720" cy="324.5" rx="728" ry="699.5" fill="url(#paint4_linear)"/>
<ellipse cx="720" cy="324.5" rx="728" ry="699.5" fill="url(#paint5_linear)"/>
<ellipse cx="720" cy="324.5" rx="728" ry="699.5" fill="url(#paint6_linear)"/>
<ellipse cx="720" cy="324.5" rx="728" ry="699.5" fill="url(#paint7_linear)"/>
</g>
</g>
<defs>
<filter id="filter0_f" x="-508" y="-875" width="2456" height="2399" filterUnits="userSpaceOnUse" color-interpolation-filters="sRGB">
<feFlood flood-opacity="0" result="BackgroundImageFix"/>
<feBlend mode="normal" in="SourceGraphic" in2="BackgroundImageFix" result="shape"/>
<feGaussianBlur stdDeviation="250" result="effect1_foregroundBlur"/>
</filter>
<linearGradient id="paint0_linear" x1="1567.48" y1="1149.62" x2="562.525" y2="214.384" gradientUnits="userSpaceOnUse">
<stop offset="0.078125" stop-color="#2D370E"/>
<stop offset="0.677083" stop-color="white" stop-opacity="0"/>
</linearGradient>
<linearGradient id="paint1_linear" x1="-194.622" y1="1445.81" x2="1411.41" y2="-149.818" gradientUnits="userSpaceOnUse">
<stop stop-color="#9D6800"/>
<stop offset="0.25" stop-color="#AD7507" stop-opacity="0.901515"/>
<stop offset="0.6875" stop-color="white" stop-opacity="0"/>
</linearGradient>
<linearGradient id="paint2_linear" x1="-95.6216" y1="-280.483" x2="1141.62" y2="1093.62" gradientUnits="userSpaceOnUse">
<stop offset="0.078125" stop-color="#123AFF"/>
<stop offset="0.677083" stop-color="white" stop-opacity="0"/>
</linearGradient>
<linearGradient id="paint3_linear" x1="1447.38" y1="-7.79683" x2="636.135" y2="799.958" gradientUnits="userSpaceOnUse">
<stop offset="0.00246061" stop-color="#0099FF"/>
<stop offset="0.00256061" stop-color="#1B71AA"/>
<stop offset="0.744792" stop-color="white" stop-opacity="0"/>
</linearGradient>
<linearGradient id="paint4_linear" x1="720" y1="-375" x2="720" y2="1024" gradientUnits="userSpaceOnUse">
<stop offset="0.635417" stop-color="#FFA900"/>
<stop offset="1" stop-color="white" stop-opacity="0"/>
</linearGradient>
<linearGradient id="paint5_linear" x1="720" y1="-375" x2="720" y2="1024" gradientUnits="userSpaceOnUse">
<stop stop-color="#008DEB"/>
<stop offset="1" stop-color="white" stop-opacity="0"/>
</linearGradient>
<linearGradient id="paint6_linear" x1="720" y1="-375" x2="720" y2="1024" gradientUnits="userSpaceOnUse">
<stop stop-color="#1371FF"/>
<stop offset="1" stop-color="white" stop-opacity="0"/>
</linearGradient>
<linearGradient id="paint7_linear" x1="720" y1="-375" x2="720" y2="1024" gradientUnits="userSpaceOnUse">
<stop stop-opacity="0.63"/>
<stop offset="0.552083" stop-color="white" stop-opacity="0"/>
</linearGradient>
<clipPath id="clip0">
<rect width="370" height="292" fill="white"/>
</clipPath>
</defs>
</svg>
